<svg width="20" height="21" viewBox="0 0 20 21" fill="none" xmlns="http://www.w3.org/2000/svg">
<path fill-rule="evenodd" clip-rule="evenodd" d="M8.70016 4.57844C8.64731 4.64583 8.52479 4.78178 8.31373 4.8533C6.93441 5.32067 6.19838 6.34114 5.79324 7.57812C5.37898 8.84297 5.33956 10.2587 5.33956 11.3571C5.33956 11.8176 5.17339 12.2781 4.98679 12.6652C4.79299 13.0672 4.53719 13.4702 4.2776 13.8357C4.10392 14.0802 3.92311 14.3155 3.74896 14.5314L16.2515 14.5314C16.0774 14.3155 15.8966 14.0802 15.723 13.8356C15.4634 13.4701 15.2077 13.0671 15.014 12.6651C14.8274 12.278 14.6613 11.8175 14.6613 11.3571C14.6613 10.2587 14.6219 8.84289 14.2078 7.57798C13.8028 6.34089 13.0671 5.32053 11.6887 4.85323C11.4776 4.78167 11.3551 4.64565 11.3023 4.57827C11.2446 4.50476 11.2103 4.43591 11.1927 4.39752C11.1573 4.32067 11.1358 4.24679 11.125 4.20834C11.1095 4.15312 11.091 4.07544 11.0753 4.0099C11.0694 3.9854 11.064 3.96258 11.0592 3.94328C11.015 3.76293 10.9606 3.57162 10.8751 3.3933C10.7903 3.21641 10.6893 3.08332 10.5693 2.99464C10.4599 2.91373 10.2914 2.83666 10.0017 2.83666C9.71174 2.83666 9.54295 2.91378 9.43342 2.99474C9.3134 3.08346 9.21233 3.21656 9.12751 3.39343C9.04199 3.57173 8.98761 3.76302 8.94333 3.94337C8.93859 3.96266 8.93313 3.98546 8.92727 4.00996C8.91159 4.0755 8.89299 4.15321 8.87748 4.20844C8.86668 4.2469 8.84515 4.32079 8.80981 4.39766C8.79216 4.43607 8.75781 4.50492 8.70016 4.57844ZM8.47919 1.7038C8.88228 1.40585 9.39038 1.23133 10.0017 1.23132C10.6129 1.23133 11.1209 1.4059 11.5238 1.7039C11.9163 1.99412 12.1634 2.36719 12.3227 2.69932C12.4627 2.99136 12.5457 3.27551 12.5987 3.4826C14.3373 4.21568 15.2581 5.62635 15.7335 7.07854C16.2345 8.6091 16.2666 10.2533 16.2666 11.3571C16.2666 11.4601 16.3123 11.6616 16.4601 11.9681C16.6006 12.2597 16.8016 12.5819 17.0319 12.9062C17.492 13.5541 18.0204 14.1431 18.2713 14.4092C18.5851 14.7418 18.6007 15.1821 18.4709 15.5006C18.3398 15.8221 18.01 16.1367 17.5333 16.1367H13.5866C13.5171 16.7104 13.3608 17.3744 13.0407 17.9794C12.525 18.9542 11.5765 19.7687 10.0363 19.7687C8.49987 19.7687 7.53716 18.9594 7.00302 17.992C6.66784 17.385 6.49763 16.7169 6.42077 16.1368H2.46688C1.99008 16.1368 1.66032 15.8221 1.52927 15.5005C1.39945 15.182 1.41506 14.7417 1.729 14.409C1.98 14.143 2.5086 13.554 2.96879 12.9061C3.19911 12.5818 3.40016 12.2596 3.54073 11.9681C3.6885 11.6615 3.73423 11.4601 3.73423 11.3571C3.73423 10.2534 3.76634 8.60907 4.26765 7.07845C4.74332 5.62614 5.6646 4.21552 7.40385 3.48252C7.45688 3.27542 7.53997 2.99127 7.68004 2.69922C7.83935 2.36705 8.08661 1.99399 8.47919 1.7038ZM8.04501 16.1368C8.11058 16.5019 8.2252 16.8843 8.40837 17.2161C8.70979 17.762 9.18064 18.1634 10.0363 18.1634C10.8869 18.1634 11.3368 17.7672 11.6217 17.2287C11.7984 16.8947 11.9057 16.5079 11.9657 16.1367L8.04501 16.1368Z" fill="white"/>
</svg>
