<svg width="24" height="28" viewBox="0 0 24 28" fill="none" xmlns="http://www.w3.org/2000/svg">
<path d="M20.9126 2.5H15.6876C15.1626 1.05 13.7876 0 12.1626 0C10.5376 0 9.1626 1.05 8.6376 2.5H3.4126C2.0376 2.5 0.912598 3.625 0.912598 5V25C0.912598 26.375 2.0376 27.5 3.4126 27.5H20.9126C22.2876 27.5 23.4126 26.375 23.4126 25V5C23.4126 3.625 22.2876 2.5 20.9126 2.5ZM12.1626 2.5C12.8501 2.5 13.4126 3.0625 13.4126 3.75C13.4126 4.4375 12.8501 5 12.1626 5C11.4751 5 10.9126 4.4375 10.9126 3.75C10.9126 3.0625 11.4751 2.5 12.1626 2.5ZM20.9126 25H3.4126V5H5.9126V8.75H18.4126V5H20.9126V25Z" fill="white"/>
</svg>
