<svg width="24" height="25" viewBox="0 0 24 25" fill="none" xmlns="http://www.w3.org/2000/svg">
<path fill-rule="evenodd" clip-rule="evenodd" d="M11 10.5C10.4477 10.5 10 10.9477 10 11.5V20.5C10 21.0523 10.4477 21.5 11 21.5H20C20.5523 21.5 21 21.0523 21 20.5V11.5C21 10.9477 20.5523 10.5 20 10.5H11ZM8 11.5C8 9.84315 9.34315 8.5 11 8.5H20C21.6569 8.5 23 9.84315 23 11.5V20.5C23 22.1569 21.6569 23.5 20 23.5H11C9.34315 23.5 8 22.1569 8 20.5V11.5Z" fill="#333333"/>
<path fill-rule="evenodd" clip-rule="evenodd" d="M4 3.5C3.73478 3.5 3.48043 3.60536 3.29289 3.79289C3.10536 3.98043 3 4.23478 3 4.5V13.5C3 13.7652 3.10536 14.0196 3.29289 14.2071C3.48043 14.3946 3.73478 14.5 4 14.5H5C5.55228 14.5 6 14.9477 6 15.5C6 16.0523 5.55228 16.5 5 16.5H4C3.20435 16.5 2.44129 16.1839 1.87868 15.6213C1.31607 15.0587 1 14.2956 1 13.5V4.5C1 3.70435 1.31607 2.94129 1.87868 2.37868C2.44129 1.81607 3.20435 1.5 4 1.5H13C13.7956 1.5 14.5587 1.81607 15.1213 2.37868C15.6839 2.94129 16 3.70435 16 4.5V5.5C16 6.05228 15.5523 6.5 15 6.5C14.4477 6.5 14 6.05228 14 5.5V4.5C14 4.23478 13.8946 3.98043 13.7071 3.79289C13.5196 3.60536 13.2652 3.5 13 3.5H4Z" fill="#333333"/>
</svg>
