<svg width="24" height="26" viewBox="0 0 24 26" fill="none" xmlns="http://www.w3.org/2000/svg">
<path d="M17.6625 12.825L16.3375 11.5L10.2375 17.6L7.5875 14.95L6.2625 16.275L10.2375 20.25L17.6625 12.825ZM20.75 2.75H19.5V0.25H17V2.75H7V0.25H4.5V2.75H3.25C1.8625 2.75 0.7625 3.875 0.7625 5.25L0.75 22.75C0.75 23.413 1.01339 24.0489 1.48223 24.5178C1.95107 24.9866 2.58696 25.25 3.25 25.25H20.75C22.125 25.25 23.25 24.125 23.25 22.75V5.25C23.25 3.875 22.125 2.75 20.75 2.75ZM20.75 22.75H3.25V9H20.75V22.75Z" fill="white"/>
</svg>
