<svg width="26" height="25" viewBox="0 0 26 25" fill="none" xmlns="http://www.w3.org/2000/svg">
<path d="M10.9177 8.21382C10.9724 8.21385 11.0266 8.20276 11.0771 8.18119C11.1277 8.15962 11.1736 8.12799 11.2122 8.08811L12.0458 7.23075C12.1199 7.14957 12.1603 7.04192 12.1586 6.93058C12.1569 6.81925 12.1132 6.71296 12.0366 6.63422C11.9601 6.55548 11.8567 6.51047 11.7485 6.50872C11.6402 6.50696 11.5356 6.5486 11.4567 6.62481L10.6231 7.48216C10.5649 7.54211 10.5252 7.61847 10.5092 7.70159C10.4931 7.7847 10.5014 7.87085 10.5329 7.94914C10.5644 8.02744 10.6178 8.09437 10.6863 8.14148C10.7548 8.18858 10.8353 8.21376 10.9177 8.21382Z" fill="#999999"/>
<path d="M13.1231 6.62565L10.6231 9.19701C10.5824 9.23632 10.5498 9.28364 10.5272 9.33617C10.5046 9.3887 10.4925 9.44536 10.4916 9.50279C10.4908 9.56021 10.5011 9.61723 10.5221 9.67047C10.543 9.7237 10.5742 9.77206 10.6137 9.81267C10.6531 9.85328 10.7002 9.88532 10.7519 9.90688C10.8037 9.92844 10.8591 9.93908 10.9149 9.93817C10.9708 9.93727 11.0259 9.92483 11.0769 9.90161C11.128 9.87838 11.174 9.84483 11.2122 9.80296L13.7122 7.23159C13.7529 7.19228 13.7855 7.14495 13.8081 7.09243C13.8307 7.0399 13.8428 6.98324 13.8436 6.92582C13.8445 6.86839 13.8342 6.81137 13.8132 6.75813C13.7923 6.7049 13.7611 6.65654 13.7216 6.61593C13.6821 6.57532 13.6351 6.54328 13.5834 6.52172C13.5316 6.50016 13.4762 6.48952 13.4203 6.49042C13.3645 6.49133 13.3094 6.50377 13.2584 6.527C13.2073 6.55023 13.1613 6.58377 13.1231 6.62565Z" fill="#999999"/>
<path d="M22.7267 4.54873C22.5122 4.1036 22.1806 3.72924 21.7697 3.4681C21.3587 3.20695 20.8849 3.06949 20.4019 3.07131H12.3273C11.562 3.07145 10.8054 3.23815 10.1072 3.56045C9.409 3.88276 8.78502 4.35338 8.27625 4.94139L4.36255 9.4683C3.47148 10.5038 2.98602 11.8427 3.00031 13.2254L3.69722 18.7566C3.79884 19.5533 4.15284 20.2935 4.70448 20.8625C5.03247 21.2017 5.42261 21.4706 5.85232 21.6537C6.28203 21.8367 6.74277 21.9303 7.20788 21.9289H21.3329C21.7749 21.9286 22.1988 21.7478 22.5113 21.4263C22.8239 21.1048 22.9996 20.6689 23 20.2142V5.74437C23 5.32945 22.9065 4.92019 22.7267 4.54873ZM6.23701 11.1767L10.1507 6.64975C10.4245 6.33329 10.7603 6.07996 11.136 5.9064C11.5117 5.73283 11.9188 5.64296 12.3307 5.64267H20.4025C20.441 5.64267 20.4712 5.66245 20.5007 5.74366V12.5001H5.53323C5.63733 11.9978 5.88196 11.5378 6.23701 11.1767ZM20.9209 18.5002H5.91704C5.80651 18.5002 5.7005 18.455 5.62234 18.3747C5.54418 18.2943 5.50027 18.1852 5.50027 18.0715C5.50027 17.9578 5.54418 17.8488 5.62234 17.7684C5.7005 17.688 5.80651 17.6429 5.91704 17.6429H20.9209C21.0315 17.6429 21.1375 17.688 21.2156 17.7684C21.2938 17.8488 21.3377 17.9578 21.3377 18.0715C21.3377 18.1852 21.2938 18.2943 21.2156 18.3747C21.1375 18.455 21.0315 18.5002 20.9209 18.5002ZM20.9209 15.9288H18.4175C18.307 15.9288 18.201 15.8837 18.1228 15.8033C18.0447 15.7229 18.0008 15.6139 18.0008 15.5002C18.0008 15.3865 18.0447 15.2774 18.1228 15.197C18.201 15.1167 18.307 15.0715 18.4175 15.0715H20.9209C21.0315 15.0715 21.1375 15.1167 21.2156 15.197C21.2938 15.2774 21.3377 15.3865 21.3377 15.5002C21.3377 15.6139 21.2938 15.7229 21.2156 15.8033C21.1375 15.8837 21.0315 15.9288 20.9209 15.9288Z" fill="#999999"/>
</svg>
