<svg width="26" height="25" viewBox="0 0 26 25" fill="none" xmlns="http://www.w3.org/2000/svg">
<path d="M3.31987 7.37991C3.08315 7.61449 2.89567 7.89648 2.76902 8.20847C2.64236 8.52046 2.57921 8.85584 2.58345 9.19391V18.7444C2.57921 19.0825 2.64236 19.4178 2.76902 19.7298C2.89567 20.0418 3.08315 20.3238 3.31987 20.5584C3.54793 20.8019 3.82208 20.9947 4.12541 21.125C4.42874 21.2552 4.75481 21.3202 5.08349 21.3158H5.79769V6.62247H5.08349C4.75481 6.6181 4.42874 6.68306 4.12541 6.81333C3.82208 6.94361 3.54793 7.13643 3.31987 7.37991Z" fill="#999999"/>
<path d="M16.8688 4.78634C16.8694 4.64147 16.8421 4.4979 16.7885 4.36393C16.7349 4.22996 16.6561 4.10822 16.5565 4.00575C16.457 3.90328 16.3386 3.8221 16.2084 3.76689C16.0782 3.71168 15.9387 3.68354 15.7978 3.68409H9.36933C9.22843 3.68345 9.0888 3.71152 8.9585 3.76669C8.8282 3.82186 8.70982 3.90302 8.61018 4.0055C8.51055 4.10798 8.43164 4.22975 8.378 4.36377C8.32437 4.49779 8.29708 4.64141 8.2977 4.78634V6.62318H6.8693V21.3158H18.2978V6.62249H16.8694L16.8688 4.78634ZM15.4404 6.62318H9.7261V5.15329H15.4404V6.62318Z" fill="#999999"/>
<path d="M21.8466 7.37991C21.6186 7.13646 21.3444 6.94366 21.0411 6.81339C20.7377 6.68311 20.4117 6.61814 20.083 6.62247H19.3688V21.3158H20.083C20.7449 21.3118 21.3785 21.0396 21.8465 20.5582C22.3145 20.0769 22.5792 19.4251 22.5831 18.7444V9.19391C22.5873 8.85584 22.5241 8.52047 22.3975 8.20849C22.2708 7.8965 22.0833 7.61451 21.8466 7.37991Z" fill="#999999"/>
</svg>
