<svg width="16" height="19" viewBox="0 0 16 19" fill="none" xmlns="http://www.w3.org/2000/svg">
<path d="M3.22345 3.98559C4.32539 3.98559 5.21869 3.09229 5.21869 1.99035C5.21869 0.888414 4.32539 -0.00488281 3.22345 -0.00488281C2.12151 -0.00488281 1.22822 0.888414 1.22822 1.99035C1.22822 3.09229 2.12151 3.98559 3.22345 3.98559Z" fill="#999999"/>
<path d="M3.42176 4.09246C4.28103 3.83468 5.18657 4.32228 5.44435 5.18154L6.95163 10.2058L6.96078 10.2424C6.98386 10.3347 7.01732 10.4387 7.06177 10.5377C7.10673 10.6379 7.15327 10.7116 7.19395 10.7604C7.23206 10.8061 7.25597 10.8197 7.26343 10.8234C7.26693 10.8253 7.2966 10.841 7.38017 10.841H10.8718C11.6197 10.841 12.2496 11.3464 12.4384 12.0344C12.6859 12.3261 12.8938 12.6754 13.0935 13.0248L13.1251 13.0802L14.9798 17.2953C15.2507 17.9112 14.9712 18.6301 14.3553 18.9011C13.7395 19.172 13.0206 18.8925 12.7496 18.2766L10.9468 14.1793C10.9287 14.1479 10.9113 14.118 10.8946 14.0895L10.8718 14.0897H7.38017C6.16357 14.0897 5.27121 13.5277 4.69824 12.8401C4.18403 12.2231 3.93734 11.5271 3.81927 11.0704L2.33267 6.11505C2.07489 5.25578 2.5625 4.35024 3.42176 4.09246Z" fill="#999999"/>
<path d="M1.67817 5.76332C1.55812 5.33113 1.11044 5.0781 0.678257 5.19815C0.246071 5.3182 -0.00696402 5.76588 0.113088 6.19807L1.78131 12.2037L1.78783 12.2232C2.33771 13.8728 3.88069 16.104 6.71507 16.104C6.98371 16.104 7.27113 16.1092 7.58093 16.1148C8.28288 16.1275 9.09966 16.1422 10.0729 16.1033C10.5211 16.0854 10.8699 15.7075 10.852 15.2593C10.8341 14.8111 10.4562 14.4623 10.008 14.4803C9.08121 14.5173 8.35108 14.5039 7.67036 14.4914C7.34608 14.4854 7.03284 14.4796 6.71507 14.4796C4.9024 14.4796 3.78701 13.0661 3.33513 11.7284L1.67817 5.76332Z" fill="#999999"/>
</svg>
