<svg width="21" height="21" viewBox="0 0 21 21" fill="none" xmlns="http://www.w3.org/2000/svg">
<path fill-rule="evenodd" clip-rule="evenodd" d="M10.5833 20.5C16.1061 20.5 20.5833 16.0228 20.5833 10.5C20.5833 4.97715 16.1061 0.5 10.5833 0.5C5.0604 0.5 0.583252 4.97715 0.583252 10.5C0.583252 16.0228 5.0604 20.5 10.5833 20.5ZM12.5176 6.86025C12.5176 7.72852 11.9357 8.46087 11.1406 8.6886V9.8767H15.075V8.66854C14.3137 8.42024 13.7635 7.70449 13.7635 6.86025C13.7635 5.81 14.6149 4.95861 15.6652 4.95861C16.7154 4.95861 17.5668 5.81 17.5668 6.86025C17.5668 7.72852 16.9849 8.46087 16.1898 8.6886L16.1898 10.9915H11.1406V12.1797C11.9357 12.4074 12.5176 13.1398 12.5176 14.0081C12.5176 15.0583 11.6662 15.9097 10.616 15.9097C9.56574 15.9097 8.71434 15.0583 8.71434 14.0081C8.71434 13.1638 9.2645 12.4481 10.0259 12.1998V10.9915H6.02582V12.1998C6.78717 12.4481 7.33731 13.1638 7.33731 14.0081C7.33731 15.0583 6.48592 15.9097 5.43567 15.9097C4.38543 15.9097 3.53403 15.0583 3.53403 14.0081C3.53403 13.1398 4.11595 12.4074 4.91107 12.1797V8.68878C4.11597 8.46105 3.53407 7.7287 3.53407 6.86043C3.53407 5.81019 4.38546 4.9588 5.4357 4.9588C6.48595 4.9588 7.33734 5.81019 7.33734 6.86043C7.33734 7.70468 6.78718 8.42044 6.02582 8.66874V9.8767H10.0259V8.66854C9.2645 8.42024 8.71434 7.70449 8.71434 6.86025C8.71434 5.81 9.56574 4.95861 10.616 4.95861C11.6662 4.95861 12.5176 5.81 12.5176 6.86025ZM17.5668 14.0081C17.5668 15.0583 16.7154 15.9097 15.6652 15.9097C14.6149 15.9097 13.7635 15.0583 13.7635 14.0081C13.7635 12.9578 14.6149 12.1064 15.6652 12.1064C16.7154 12.1064 17.5668 12.9578 17.5668 14.0081Z" fill="#999999"/>
<path d="M5.75924 5.89228V8.09556H5.24934V6.30146H4.80868V5.89228H5.75924Z" fill="#999999"/>
<path d="M6.30916 14.7512V15.1667H4.64411V14.8362L5.49395 14.0336C5.58418 13.9475 5.64503 13.8741 5.6765 13.8132C5.70798 13.7503 5.72372 13.6884 5.72372 13.6275C5.72372 13.5394 5.69329 13.4722 5.63244 13.4261C5.57368 13.3778 5.4866 13.3537 5.37119 13.3537C5.27467 13.3537 5.18759 13.3726 5.10995 13.4103C5.03231 13.446 4.96726 13.5006 4.9148 13.574L4.54339 13.3348C4.62942 13.2068 4.74798 13.1071 4.89906 13.0358C5.05014 12.9623 5.22326 12.9256 5.41841 12.9256C5.58208 12.9256 5.72477 12.9529 5.84647 13.0075C5.97027 13.0599 6.06575 13.1355 6.1329 13.2341C6.20214 13.3306 6.23677 13.445 6.23677 13.5772C6.23677 13.6968 6.21159 13.809 6.16123 13.9139C6.11086 14.0189 6.01329 14.1385 5.8685 14.2728L5.36175 14.7512H6.30916Z" fill="#999999"/>
<path d="M10.8695 6.78933C11.0625 6.8208 11.2105 6.8932 11.3133 7.00651C11.4161 7.11772 11.4675 7.25621 11.4675 7.42198C11.4675 7.54998 11.4339 7.66854 11.3668 7.77765C11.2996 7.88467 11.1968 7.9707 11.0583 8.03575C10.9219 8.1008 10.7541 8.13333 10.5547 8.13333C10.3994 8.13333 10.2463 8.11339 10.0952 8.07352C9.94619 8.03156 9.81924 7.9728 9.71433 7.89726L9.91262 7.50697C9.99656 7.56992 10.0931 7.61923 10.2022 7.6549C10.3134 7.68847 10.4267 7.70526 10.5421 7.70526C10.6701 7.70526 10.7709 7.68113 10.8443 7.63287C10.9177 7.58251 10.9545 7.51221 10.9545 7.42198C10.9545 7.24152 10.817 7.15129 10.5421 7.15129H10.3092V6.81451L10.7625 6.30146H9.82449V5.89228H11.3668V6.22277L10.8695 6.78933Z" fill="#999999"/>
<path d="M11.5402 14.704H11.1814V15.1667H10.6841V14.704H9.49745V14.3609L10.5361 12.9634H11.0712L10.1081 14.2885H10.6998V13.8762H11.1814V14.2885H11.5402V14.704Z" fill="#999999"/>
<path d="M15.7713 6.72008C16.0819 6.72008 16.3106 6.78198 16.4575 6.90579C16.6065 7.02959 16.681 7.19536 16.681 7.4031C16.681 7.53739 16.6474 7.66015 16.5803 7.77136C16.5131 7.88047 16.4103 7.96861 16.2718 8.03575C16.1354 8.1008 15.9665 8.13333 15.765 8.13333C15.6098 8.13333 15.4566 8.11339 15.3055 8.07352C15.1565 8.03156 15.0296 7.9728 14.9246 7.89726L15.1261 7.50697C15.21 7.56992 15.3065 7.61923 15.4157 7.6549C15.5248 7.68847 15.637 7.70526 15.7525 7.70526C15.8805 7.70526 15.9812 7.68008 16.0546 7.62972C16.1281 7.57936 16.1648 7.50906 16.1648 7.41883C16.1648 7.32441 16.126 7.25306 16.0483 7.2048C15.9728 7.15654 15.8406 7.13241 15.6517 7.13241H15.0883L15.2016 5.89228H16.5456V6.30146H15.6265L15.5919 6.72008H15.7713Z" fill="#999999"/>
<path d="M16.2386 15.1667L15.8136 14.5529H15.3447V15.1667H14.8348V12.9634H15.7885C15.9836 12.9634 16.1525 12.9959 16.2952 13.061C16.44 13.126 16.5512 13.2183 16.6289 13.3379C16.7065 13.4576 16.7453 13.5992 16.7453 13.7629C16.7453 13.9265 16.7054 14.0682 16.6257 14.1878C16.5481 14.3053 16.4369 14.3955 16.2921 14.4585L16.7862 15.1667H16.2386ZM16.2291 13.7629C16.2291 13.6391 16.1892 13.5446 16.1095 13.4796C16.0298 13.4124 15.9133 13.3789 15.7601 13.3789H15.3447V14.1469H15.7601C15.9133 14.1469 16.0298 14.1133 16.1095 14.0461C16.1892 13.979 16.2291 13.8846 16.2291 13.7629Z" fill="#999999"/>
</svg>
