<svg width="259" height="143" viewBox="0 0 259 143" fill="none" xmlns="http://www.w3.org/2000/svg">
<g filter="url(#filter0_d_168_10745)">
<path d="M108.946 6.65019C108.146 6.95019 108.246 6.65019 109.246 5.45018C109.646 4.95018 110.746 3.6502 111.646 2.55019C113.046 0.650186 113.246 0.550193 114.346 0.450189C114.946 0.450189 115.946 0.650186 116.346 0.950188C117.146 1.35019 117.246 1.55019 116.946 1.85019C116.646 2.25019 116.746 2.35019 117.446 2.55019C117.846 2.75019 118.346 2.85019 118.646 2.75019C119.246 2.55019 120.346 3.95019 120.346 4.85019C120.346 5.25019 120.246 5.85019 120.046 6.25019C119.946 6.65019 119.646 7.55019 119.446 8.25018C119.246 8.85019 118.746 10.0502 118.246 10.7502C117.746 11.5502 116.446 13.5502 115.246 15.2502C114.146 17.0502 112.246 20.1502 111.146 22.2502C107.346 29.5502 102.346 39.3502 101.346 41.5502C95.9457 53.3502 94.5457 56.0502 94.2457 56.0502C94.0457 56.0502 93.9457 56.2502 94.0457 56.3502C94.2457 56.5502 93.6457 57.9502 92.8457 59.4502C92.1457 60.9502 90.4457 64.5502 89.2457 67.4502L86.9457 72.5502L88.3457 73.9502C89.0457 74.6502 89.6457 75.5502 89.6457 75.9502C89.6457 76.3502 89.8457 76.9502 90.1457 77.3502C90.4457 77.8502 90.5457 78.1502 90.3457 78.1502C90.1457 78.1502 89.9457 78.3502 89.9457 78.7502C89.9457 79.0502 89.3457 79.9502 88.4457 80.7502C87.1457 82.2502 86.9457 82.3502 85.5457 82.3502C84.5457 82.2502 84.1457 82.1502 84.1457 81.8502C84.1457 81.6502 83.9457 81.4502 83.8457 81.4502C83.6457 81.4502 83.5457 81.2502 83.5457 80.9502C83.5457 80.7502 83.2457 80.5502 82.7457 80.5502C81.8457 80.5502 81.7457 80.7502 82.4457 81.2502C82.8457 81.6502 82.8457 81.8502 82.1457 83.3502C81.7457 84.3502 80.9457 85.9502 80.5457 86.9502C80.1457 88.0502 79.5457 89.2502 79.3457 89.7502C79.1457 90.2502 78.7457 91.1502 78.6457 91.6502C78.1457 92.7502 77.2457 92.7502 77.5457 91.5502C77.6457 90.9502 77.6457 90.8502 77.2457 90.9502C76.9457 91.1502 76.7457 91.2502 76.7457 91.4502C76.7457 91.5502 76.6457 91.8502 76.5457 92.1502C76.4457 92.4502 76.6457 92.7502 77.2457 92.9502C78.0457 93.2502 78.0457 93.2502 77.5457 93.9502C77.2457 94.3502 77.0457 94.8502 77.0457 95.1502C77.0457 95.3502 76.2457 97.7502 75.2457 100.45C74.2457 103.25 72.6457 107.45 71.8457 109.95C70.9457 112.45 69.9457 115.05 69.6457 115.75C69.0457 117.05 68.1457 119.65 67.5457 121.95C67.3457 122.95 66.9457 123.45 66.5457 123.55C65.8457 123.75 65.8457 123.55 66.5457 121.75C67.0457 120.45 68.0457 117.65 68.3457 116.45C68.4457 116.25 68.2457 116.35 67.9457 116.75C67.5457 117.25 67.3457 117.65 67.4457 117.75C67.5457 117.95 67.3457 118.15 67.1457 118.45C66.9457 118.65 66.4457 119.65 66.1457 120.75C65.8457 121.75 65.5457 123.05 65.3457 123.45C64.9457 124.65 64.7457 126.15 64.9457 126.15C65.0457 126.15 65.3457 125.65 65.5457 125.05C66.0457 124.05 66.6457 123.65 66.6457 124.45C66.6457 124.75 66.3457 125.95 66.0457 127.15C65.6457 128.35 65.3457 129.65 65.3457 130.15C65.3457 130.55 65.0457 131.15 64.7457 131.45C64.1457 131.95 64.0457 131.95 63.1457 131.65C62.6457 131.45 61.8457 131.15 61.4457 131.05C60.9457 130.95 60.7457 130.65 60.5457 129.95C60.3457 128.85 59.3457 128.25 58.9457 128.85C58.5457 129.45 58.1457 129.05 57.6457 127.85C57.3457 126.65 57.5457 124.85 58.3457 122.95C58.5457 122.45 58.7457 121.65 58.8457 121.15C59.1457 118.95 63.3457 107.05 64.0457 106.35C64.5457 105.75 64.8457 105.85 64.6457 106.35C64.5457 106.65 64.6457 106.75 64.7457 106.65C65.1457 106.45 65.1457 105.35 64.7457 105.35C64.6457 105.35 64.4457 105.05 64.4457 104.75C64.4457 104.15 66.7457 97.7502 71.6457 85.1502C73.2457 80.9502 74.5457 77.4502 74.5457 77.3502C74.5457 77.1502 71.3457 77.5502 67.2457 78.3502C64.9457 78.7502 62.2457 79.1502 61.2457 79.1502C58.7457 79.2502 58.6457 79.2502 58.6457 79.7502C58.6457 80.0502 58.2457 80.1502 57.7457 80.1502C57.2457 80.1502 56.7457 79.9502 56.7457 79.8502C56.7457 79.7502 56.6457 79.6502 56.4457 79.6502C56.2457 79.6502 56.1457 79.8502 56.1457 80.0502C56.1457 80.6502 54.6457 81.2502 54.1457 80.8502C53.8457 80.6502 53.7457 80.6502 53.6457 80.8502C53.6457 81.0502 52.9457 81.2502 52.1457 81.3502C51.4457 81.3502 50.7457 81.5502 50.6457 81.7502C50.5457 81.8502 49.5457 82.2502 48.4457 82.4502C47.3457 82.7502 45.5457 83.1502 44.3457 83.4502C43.1457 83.7502 41.9457 83.9502 41.5457 83.9502C41.2457 84.0502 40.8457 84.1502 40.6457 84.2502C40.1457 84.5502 35.1457 85.6502 34.1457 85.6502C33.3457 85.6502 33.1457 86.0502 33.0457 87.7502C32.9457 89.0502 31.7457 91.5502 31.1457 91.8502C30.8457 91.9502 30.7457 92.1502 30.7457 92.2502C30.8457 92.4502 30.6457 93.4502 30.1457 94.6502C28.6457 98.4502 28.2457 99.9502 28.3457 100.25C28.4457 100.35 28.3457 100.75 28.2457 101.05C27.9457 101.45 27.9457 101.45 28.0457 100.85C28.1457 100.25 28.0457 100.45 27.6457 101.25C27.2457 101.95 27.0457 102.65 27.1457 102.95C27.1457 103.25 27.1457 103.45 27.0457 103.35C26.8457 103.25 26.3457 104.15 25.9457 105.25C24.8457 108.15 24.7457 108.65 25.4457 107.25L26.0457 106.05L25.8457 107.15C25.7457 108.05 24.2457 111.85 23.5457 112.95C23.4457 113.25 23.3457 113.75 23.3457 114.05C23.3457 114.45 23.1457 114.95 23.0457 115.25C22.4457 116.35 21.4457 119.15 21.4457 119.55C21.4457 119.95 21.2457 120.15 20.8457 120.15C20.5457 120.15 20.1457 120.25 20.0457 120.45C19.9457 120.55 20.0457 120.65 20.3457 120.55C21.0457 120.35 21.1457 120.75 20.7457 122.15C20.4457 123.25 20.2457 123.45 19.8457 123.35C19.3457 123.25 19.3457 123.35 19.5457 123.85C19.8457 124.75 19.7457 125.05 18.7457 129.05C17.9457 132.05 17.7457 133.05 17.9457 135.15C17.9457 136.55 18.1457 137.75 18.1457 137.85C18.3457 138.15 17.7457 139.05 17.1457 139.15C16.9457 139.25 16.2457 139.25 15.7457 139.25C14.5457 139.05 14.1457 138.75 13.9457 137.65C13.8457 137.15 13.6457 136.75 13.5457 136.75C13.3457 136.75 13.3457 137.05 13.4457 137.45C13.5457 138.05 13.5457 138.05 12.9457 137.55C12.5457 137.25 11.9457 136.35 11.6457 135.45C11.0457 134.05 10.9457 133.55 11.1457 130.85C11.2457 129.15 11.6457 126.35 12.1457 124.45C12.5457 122.65 12.9457 120.95 13.0457 120.75C13.1457 120.05 14.3457 116.45 15.3457 113.45C15.7457 112.05 17.4457 107.65 18.9457 103.65C20.5457 99.6502 22.0457 95.8502 22.2457 95.1502C22.7457 93.7502 23.8457 93.2502 23.4457 94.5502C23.2457 95.1502 23.2457 95.1502 23.7457 94.5502C24.7457 93.3502 24.5457 94.5502 23.2457 97.6502C19.3457 107.45 15.3457 119.25 14.2457 124.05C12.9457 129.95 12.6457 134.05 13.5457 135.15C14.1457 135.85 14.3457 135.45 14.3457 133.85C14.3457 132.15 15.0457 128.15 15.4457 126.95C15.6457 126.65 15.8457 126.45 15.9457 126.45C16.0457 126.45 16.3457 125.85 16.5457 125.15C17.8457 120.35 21.5457 110.25 22.5457 108.85C22.7457 108.55 22.9457 107.85 22.9457 107.45C22.9457 107.15 23.5457 105.65 24.1457 104.35C24.8457 102.95 25.6457 100.95 26.0457 99.9502C26.7457 98.1502 27.3457 97.2502 27.3457 98.0502C27.3457 98.3502 27.4457 98.2502 27.7457 97.8502C28.0457 97.5502 28.1457 97.1502 28.1457 96.8502C28.1457 96.5502 28.0457 96.5502 27.7457 96.9502C27.0457 97.9502 27.1457 96.9502 28.0457 95.0502C30.9457 88.6502 31.6457 86.8502 31.5457 86.7502C31.4457 86.6502 30.4457 86.7502 29.4457 87.0502C27.6457 87.5502 27.4457 87.6502 26.9457 88.9502C26.5457 89.7502 26.1457 90.3502 26.0457 90.4502C25.8457 90.5502 25.7457 90.8502 25.7457 91.1502C25.7457 91.8502 24.8457 93.8502 24.5457 93.8502C24.1457 93.8502 24.1457 93.3502 24.5457 93.0502C24.7457 92.9502 24.7457 92.7502 24.6457 92.5502C24.5457 92.4502 24.3457 92.3502 24.2457 92.4502C23.5457 92.8502 23.6457 91.9502 24.3457 90.1502C24.8457 89.1502 25.1457 88.2502 25.0457 88.2502C24.9457 88.0502 14.4457 91.0502 10.1457 92.5502C7.9457 93.2502 5.9457 93.8502 5.6457 93.7502C5.3457 93.6502 5.1457 93.7502 5.1457 93.9502C5.1457 94.2502 4.8457 94.4502 4.4457 94.4502C4.0457 94.4502 3.5457 94.6502 3.3457 94.8502C2.8457 95.4502 2.4457 95.4502 1.7457 94.8502C1.3457 94.4502 1.2457 94.2502 1.5457 93.5502C1.9457 92.4502 1.7457 91.7502 1.0457 91.7502C0.645703 91.7502 0.645703 91.5502 0.745703 90.9502C1.0457 89.8502 0.945703 89.8502 3.6457 89.0502C4.9457 88.6502 6.8457 88.0502 7.8457 87.6502C8.8457 87.2502 9.9457 86.8502 10.1457 86.8502C10.4457 86.8502 10.7457 86.7502 10.8457 86.6502C11.4457 86.1502 14.4457 85.0502 14.7457 85.2502C14.8457 85.3502 15.0457 85.2502 15.0457 85.1502C15.0457 84.6502 16.6457 84.2502 18.8457 84.0502C20.0457 83.9502 22.2457 83.5502 23.7457 83.1502C25.4457 82.7502 26.6457 82.5502 26.8457 82.6502C27.3457 83.1502 28.3457 83.0502 28.0457 82.4502C27.8457 81.7502 28.1457 81.4502 28.7457 81.7502C29.1457 81.9502 29.4457 81.8502 29.9457 81.5502C30.2457 81.3502 30.8457 81.1502 31.3457 81.1502C32.8457 81.1502 34.3457 80.3502 34.6457 79.4502C34.8457 78.9502 36.0457 76.5502 37.2457 74.0502C39.7457 69.0502 40.4457 67.2502 39.1457 69.2502L38.3457 70.4502L38.5457 69.2502C38.6457 68.5502 39.4457 66.4502 40.3457 64.5502C44.0457 57.0502 44.5457 55.9502 45.0457 53.9502C45.2457 53.2502 45.5457 52.3502 45.6457 52.0502C45.9457 50.7502 43.9457 53.0502 43.1457 54.8502C42.6457 55.7502 42.1457 56.7502 41.9457 56.9502C41.8457 57.2502 41.5457 57.8502 41.2457 58.3502C40.6457 59.6502 36.1457 68.6502 35.4457 69.9502C35.1457 70.5502 33.8457 73.2502 32.6457 75.8502C31.4457 78.5502 30.2457 80.7502 30.0457 80.7502C29.7457 80.8502 29.7457 80.7502 29.9457 80.1502C30.1457 79.5502 30.1457 79.5502 29.6457 80.0502C29.3457 80.4502 29.1457 80.8502 29.1457 81.0502C29.1457 81.3502 28.9457 81.4502 28.7457 81.3502C28.2457 81.1502 28.2457 81.0502 30.8457 75.6502C32.1457 72.9502 33.6457 69.6502 34.3457 68.2502C34.9457 66.8502 35.5457 65.8502 35.7457 65.8502C35.9457 65.9502 36.0457 65.7502 35.9457 65.4502C35.8457 65.0502 40.1457 56.2502 42.3457 52.4502C44.2457 49.0502 45.7457 45.7502 45.5457 45.4502C45.4457 45.3502 45.1457 45.2502 44.9457 45.2502C44.6457 45.2502 44.5457 44.9502 44.5457 44.5502C44.5457 44.1502 44.1457 43.3502 43.7457 42.7502C42.9457 41.5502 42.8457 39.7502 43.5457 39.5502C43.7457 39.4502 44.9457 37.7502 46.2457 35.8502C51.6457 27.6502 53.1457 25.5502 53.4457 25.5502C53.5457 25.5502 53.6457 25.3502 53.6457 25.0502C53.6457 24.5502 55.2457 22.3502 56.6457 20.8502C57.2457 20.2502 57.5457 19.7502 57.5457 19.7502C57.3457 19.6502 61.1457 13.7502 61.9457 12.8502C62.1457 12.6502 63.2457 11.0502 64.4457 9.45019C65.6457 7.75018 66.7457 6.45019 66.9457 6.45019C67.0457 6.45019 67.2457 6.25019 67.2457 5.9502C67.2457 4.95018 68.8457 3.55019 69.8457 3.6502C71.7457 3.85019 72.5457 4.15019 72.3457 4.75019C72.2457 5.15019 72.4457 5.45018 72.9457 5.65019C73.3457 5.75019 73.6457 6.05019 73.6457 6.15019C73.6457 6.45019 72.4457 9.65019 71.5457 11.5502C71.1457 12.2502 70.5457 13.4502 70.1457 14.1502C69.6457 14.8502 68.1457 17.6502 66.7457 20.4502C65.3457 23.1502 63.4457 26.7502 62.4457 28.4502C61.5457 30.0502 60.7457 31.4502 60.7457 31.4502C60.7457 31.5502 59.0457 34.7502 56.9457 38.6502C54.9457 42.4502 52.5457 47.0502 51.7457 48.8502C49.5457 53.6502 43.8457 64.9502 43.5457 65.0502C43.3457 65.1502 43.2457 65.4502 43.2457 65.7502C43.2457 66.0502 43.1457 66.3502 42.9457 66.3502C42.5457 66.3502 42.0457 67.3502 41.9457 68.3502C41.7457 69.6502 38.6457 76.0502 38.1457 76.0502C37.9457 76.0502 37.7457 75.6502 37.7457 75.1502C37.7457 74.4502 37.6457 74.4502 37.4457 74.9502C37.2457 75.3502 37.3457 75.7502 37.6457 76.2502C38.1457 77.0502 38.1457 77.2502 37.6457 77.1502C37.4457 77.1502 37.2457 77.5502 37.1457 78.3502C36.9457 79.4502 37.0457 79.6502 37.4457 79.4502C37.6457 79.3502 39.0457 79.1502 40.5457 79.0502C43.0457 78.7502 44.9457 78.2502 45.7457 77.6502C46.2457 77.2502 56.6457 74.7502 58.0457 74.6502C58.2457 74.6502 58.6457 74.5502 58.9457 74.4502C60.1457 73.9502 65.8457 73.0502 65.9457 73.2502C66.0457 73.6502 66.9457 73.6502 66.9457 73.3502C66.9457 72.8502 68.0457 72.6502 72.5457 72.1502L76.8457 71.6502L78.1457 68.7502C78.9457 67.1502 80.2457 64.0502 81.2457 61.8502C82.1457 59.5502 83.8457 56.0502 84.9457 53.9502C86.0457 51.8502 86.8457 49.9502 86.8457 49.7502C86.8457 49.3502 87.2457 49.3502 87.6457 49.6502C87.7457 49.7502 87.5457 50.1502 87.2457 50.4502C86.7457 50.9502 86.7457 50.9502 87.3457 50.8502C88.2457 50.7502 88.0457 51.4502 85.4457 56.5502C84.2457 59.0502 83.2457 61.1502 83.2457 61.2502C83.2457 61.4502 82.1457 63.8502 80.9457 66.7502C79.0457 71.0502 78.6457 72.2502 78.6457 73.4502C78.6457 74.6502 78.7457 74.8502 78.9457 74.2502C79.0457 73.8502 79.1457 73.3502 78.9457 73.1502C78.9457 72.8502 78.9457 72.7502 79.3457 72.7502C79.5457 72.7502 79.8457 72.9502 79.9457 73.2502C79.9457 73.5502 80.0457 73.4502 80.0457 72.9502C80.1457 72.3502 80.3457 71.9502 80.8457 71.8502C81.3457 71.6502 81.6457 71.1502 81.9457 70.1502C82.5457 68.1502 83.1457 67.7502 83.0457 69.4502C82.9457 70.1502 82.8457 71.0502 82.7457 71.4502C82.5457 71.9502 82.5457 72.1502 82.9457 72.0502C83.4457 71.8502 86.7457 65.3502 89.1457 59.8502C90.9457 55.7502 91.7457 54.0502 96.6457 43.6502C99.0457 38.7502 101.546 31.9502 100.746 32.5502C100.546 32.7502 100.446 33.0502 100.446 33.2502C100.446 33.4502 100.046 34.0502 99.6457 34.5502C98.6457 35.7502 94.8457 43.4502 94.8457 44.2502C94.8457 44.6502 94.7457 45.2502 94.5457 45.5502C94.2457 46.0502 94.1457 46.0502 93.9457 45.7502C93.7457 45.5502 93.6457 45.4502 93.6457 45.6502C93.6457 46.2502 92.3457 48.8502 92.1457 48.7502C92.0457 48.5502 92.7457 46.7502 94.4457 43.2502C95.7457 40.3502 100.746 29.9502 103.146 25.1502C104.146 23.0502 104.946 21.1502 104.946 21.0502C104.946 20.6502 103.446 21.5502 102.746 22.3502C102.446 22.7502 102.246 23.2502 102.246 23.4502C102.246 23.7502 102.046 24.1502 101.846 24.2502C101.146 24.6502 99.0457 28.9502 99.0457 29.9502C99.0457 30.5502 98.8457 30.8502 98.5457 30.8502C98.1457 30.8502 97.0457 32.6502 97.0457 33.3502C97.0457 33.7502 97.1457 33.7502 97.4457 33.4502C97.7457 33.1502 97.9457 33.1502 97.9457 33.3502C97.9457 33.5502 97.5457 33.9502 97.1457 34.3502C96.3457 34.9502 94.0457 38.8502 91.0457 44.9502C90.0457 47.0502 89.6457 47.5502 89.0457 47.6502C88.7457 47.6502 88.4457 47.4502 88.4457 47.1502C88.4457 45.5502 105.246 12.7502 108.946 7.25018C109.446 6.45019 109.446 6.45019 108.946 6.65019ZM52.4457 42.1502C52.6457 41.9502 52.7457 41.5502 52.7457 41.4502C52.7457 41.2502 52.6457 41.3502 52.4457 41.5502C52.3457 41.8502 52.1457 42.1502 52.1457 42.3502C52.1457 42.4502 52.3457 42.4502 52.4457 42.1502ZM59.0457 32.5502L58.5457 33.5502L59.1457 32.8502C59.5457 32.3502 60.1457 31.3502 60.6457 30.3502C61.0457 29.5502 61.7457 28.3502 62.0457 27.9502C62.8457 26.8502 65.4457 21.8502 65.2457 21.7502C65.0457 21.5502 63.2457 24.5502 63.0457 25.4502C62.9457 25.8502 62.7457 26.2502 62.5457 26.3502C62.0457 26.6502 59.5457 30.6502 59.5457 31.1502C59.5457 31.4502 59.3457 32.0502 59.0457 32.5502ZM57.7457 26.4502C57.3457 27.0502 57.3457 27.3502 57.7457 27.3502C57.8457 27.3502 58.0457 27.0502 58.0457 26.7502C57.9457 26.1502 57.9457 26.1502 57.7457 26.4502ZM56.8457 36.4502C56.6457 36.4502 56.1457 37.0502 55.6457 37.8502C55.2457 38.6502 54.5457 39.8502 54.0457 40.4502C53.6457 41.0502 53.2457 42.0502 53.2457 42.6502L53.1457 43.8502L53.9457 42.5502C54.3457 41.8502 54.5457 41.1502 54.4457 40.9502C54.3457 40.7502 54.3457 40.6502 54.5457 40.7502C54.8457 40.9502 55.9457 39.1502 57.0457 36.6502C57.0457 36.5502 56.9457 36.4502 56.8457 36.4502ZM54.9457 37.2502C54.6457 36.9502 53.9457 37.9502 53.3457 39.4502C52.6457 40.8502 52.6457 40.9502 53.0457 40.9502C53.2457 40.9502 53.3457 40.8502 53.3457 40.6502C53.3457 40.5502 53.8457 39.7502 54.3457 38.8502C54.8457 38.0502 55.1457 37.2502 54.9457 37.2502ZM53.2457 35.8502C53.0457 35.8502 51.8457 36.8502 51.8457 37.1502C51.8457 37.4502 52.2457 37.4502 52.6457 37.1502C53.0457 36.8502 53.4457 35.8502 53.2457 35.8502ZM51.4457 38.4502C51.1457 38.7502 50.9457 39.1502 50.9457 39.4502C50.9457 39.9502 51.8457 38.6502 51.8457 38.1502C51.8457 37.9502 51.6457 38.0502 51.4457 38.4502ZM41.4457 66.9502C41.6457 66.9502 41.7457 66.7502 41.7457 66.4502C41.7457 66.2502 41.6457 66.0502 41.6457 66.0502C41.5457 66.0502 41.4457 66.2502 41.3457 66.4502C41.2457 66.7502 41.2457 66.9502 41.4457 66.9502ZM41.3457 65.0502C41.1457 65.4502 41.1457 65.5502 41.4457 65.2502C41.6457 65.0502 41.7457 64.7502 41.6457 64.6502C41.5457 64.5502 41.3457 64.7502 41.3457 65.0502ZM24.4457 87.4502C24.6457 87.3502 24.8457 87.2502 24.8457 87.1502C24.8457 86.7502 24.4457 86.8502 24.2457 87.2502C24.1457 87.4502 24.3457 87.5502 24.4457 87.4502ZM25.8457 89.6502C25.9457 89.5502 26.0457 89.1502 26.0457 88.9502C25.9457 88.7502 25.7457 88.8502 25.6457 89.2502C25.5457 89.7502 25.5457 89.8502 25.8457 89.6502ZM13.6457 120.85C13.5457 121.45 13.5457 121.45 13.9457 120.95C14.1457 120.55 14.3457 120.15 14.3457 120.05C14.3457 119.55 13.8457 120.15 13.6457 120.85ZM36.1457 78.4502C36.4457 77.6502 36.4457 77.4502 36.1457 77.7502C35.9457 77.9502 35.7457 78.2502 35.7457 78.5502C35.6457 78.7502 35.5457 79.1502 35.4457 79.4502C35.2457 79.8502 35.2457 79.9502 35.4457 79.7502C35.6457 79.6502 35.9457 79.0502 36.1457 78.4502ZM59.9457 77.9502C60.7457 77.7502 60.8457 77.6502 60.2457 77.5502C59.9457 77.4502 59.5457 77.4502 59.3457 77.5502C59.2457 77.6502 58.6457 77.9502 58.1457 78.0502L57.2457 78.4502L58.1457 78.2502C58.5457 78.1502 59.4457 78.0502 59.9457 77.9502ZM61.8457 77.4502C62.3457 77.4502 62.5457 77.4502 62.2457 77.3502C61.9457 77.2502 61.5457 77.2502 61.3457 77.3502C61.1457 77.4502 61.3457 77.4502 61.8457 77.4502ZM67.9457 76.2502C68.3457 76.1502 68.0457 76.0502 67.0457 76.2502C66.2457 76.3502 65.2457 76.5502 64.9457 76.6502C64.5457 76.8502 64.9457 76.8502 65.8457 76.7502C66.6457 76.6502 67.6457 76.4502 67.9457 76.2502ZM72.0457 75.6502C72.3457 75.6502 72.4457 75.5502 72.1457 75.4502C71.9457 75.4502 71.7457 75.4502 71.6457 75.5502C71.5457 75.6502 71.6457 75.7502 72.0457 75.6502ZM81.4457 74.1502C81.4457 74.1502 81.3457 74.3502 81.3457 74.5502C81.3457 74.6502 81.5457 74.8502 81.6457 74.8502C81.8457 74.8502 81.9457 74.6502 81.8457 74.5502C81.7457 74.3502 81.5457 74.1502 81.4457 74.1502ZM78.7457 78.5502C78.6457 78.4502 78.6457 78.5502 78.6457 78.9502C78.6457 79.2502 78.6457 79.3502 78.7457 79.0502C78.8457 78.8502 78.8457 78.6502 78.7457 78.5502ZM78.1457 70.8502C77.9457 71.2502 78.0457 71.2502 78.3457 70.9502C78.5457 70.7502 78.6457 70.5502 78.5457 70.4502C78.4457 70.3502 78.2457 70.5502 78.1457 70.8502ZM78.1457 77.1502C77.7457 76.6502 77.3457 76.9502 77.3457 77.5502C77.3457 78.0502 77.4457 78.1502 77.8457 77.8502C78.0457 77.6502 78.2457 77.3502 78.1457 77.1502ZM70.4457 111.25C70.6457 110.45 70.7457 109.85 70.6457 110.05C70.2457 110.45 68.4457 115.45 68.4457 115.85C68.5457 116.25 70.0457 112.65 70.4457 111.25ZM74.2457 99.4502C74.4457 99.3502 74.5457 99.1502 74.4457 98.9502C74.1457 98.5502 73.9457 98.6502 73.9457 99.1502C73.9457 99.4502 74.1457 99.5502 74.2457 99.4502ZM76.1457 95.3502C76.5457 94.1502 76.6457 93.3502 76.4457 93.1502C76.2457 92.9502 76.0457 93.3502 75.8457 94.1502C75.6457 94.9502 75.3457 95.9502 75.1457 96.4502C74.4457 98.8502 75.2457 97.9502 76.1457 95.3502ZM78.1457 89.2502C78.4457 89.2502 78.5457 89.0502 78.5457 88.4502C78.5457 87.6502 78.5457 87.6502 78.1457 88.2502C77.5457 88.9502 77.5457 89.2502 78.1457 89.2502ZM75.7457 90.3502C76.2457 89.8502 77.8457 86.0502 79.5457 81.5502C80.2457 79.5502 80.4457 78.6502 80.2457 78.3502C79.9457 78.1502 79.7457 78.3502 79.3457 79.1502C79.0457 79.7502 78.6457 80.2502 78.3457 80.2502C78.1457 80.2502 77.9457 80.4502 77.9457 80.7502C77.9457 80.9502 77.8457 81.1502 77.6457 80.9502C77.4457 80.8502 77.4457 80.5502 77.6457 80.0502C77.9457 79.4502 77.8457 79.1502 77.5457 78.8502C77.1457 78.3502 77.0457 78.4502 76.8457 79.2502C76.6457 80.4502 75.4457 83.3502 75.0457 83.8502C74.8457 84.1502 74.2457 85.2502 73.7457 86.3502C73.1457 87.4502 72.5457 88.4502 72.4457 88.4502C72.2457 88.4502 72.1457 88.6502 72.1457 88.8502C72.1457 89.0502 71.9457 89.7502 71.6457 90.2502C70.1457 93.6502 66.0457 104.95 61.9457 117.25C61.0457 119.95 59.2457 126.55 59.2457 127.15C59.2457 127.65 59.6457 127.15 60.8457 125.55C61.5457 124.55 62.2457 122.85 62.7457 121.25C63.1457 119.75 63.7457 118.15 63.9457 117.65C64.2457 117.05 64.5457 115.95 64.7457 115.15C64.9457 114.25 65.2457 113.45 65.3457 113.35C65.4457 113.15 66.2457 111.15 67.0457 108.95C67.8457 106.65 68.6457 104.75 68.8457 104.55C68.9457 104.45 69.0457 104.05 69.0457 103.65C69.0457 103.25 69.2457 102.85 69.3457 102.75C69.4457 102.55 69.7457 101.95 69.9457 101.25C70.2457 100.55 70.6457 99.4502 70.9457 98.8502C72.0457 96.3502 72.9457 93.9502 73.1457 93.0502C73.3457 92.4502 73.5457 92.0502 73.7457 92.0502C73.8457 92.0502 73.9457 91.7502 73.8457 91.2502C73.6457 90.7502 73.8457 90.3502 74.2457 89.9502C74.5457 89.6502 74.9457 88.9502 75.0457 88.2502C75.2457 87.3502 75.8457 86.7502 75.8457 87.5502C75.8457 87.8502 73.9457 93.2502 72.6457 96.5502C72.2457 97.6502 71.0457 100.75 70.0457 103.55C68.9457 106.25 67.9457 108.75 67.8457 109.05C67.6457 109.55 64.9457 117.85 63.1457 123.35C63.0457 123.95 62.9457 124.65 63.0457 124.85C63.3457 125.65 63.7457 124.65 66.7457 115.75C68.2457 111.55 70.2457 105.95 71.1457 103.35C73.4457 97.7502 74.4457 94.7502 74.3457 94.2502C74.2457 93.9502 74.5457 93.4502 74.9457 92.9502C75.3457 92.3502 75.4457 91.7502 75.3457 91.4502C75.2457 91.1502 75.4457 90.6502 75.7457 90.3502ZM81.5457 80.8502C81.3457 80.5502 81.5457 79.6502 82.2457 77.8502C82.7457 76.5502 83.0457 75.4502 82.8457 75.5502C82.7457 75.6502 82.5457 75.9502 82.5457 76.0502C82.5457 76.3502 82.2457 77.2502 81.7457 78.1502C81.0457 79.6502 79.7457 83.5502 80.0457 83.5502C80.0457 83.5502 80.3457 83.1502 80.5457 82.5502C80.9457 81.8502 80.9457 81.7502 81.0457 82.2502C81.0457 82.7502 81.1457 82.7502 81.4457 82.0502C81.7457 81.5502 81.8457 81.1502 81.5457 80.8502ZM82.7457 78.8502C82.9457 78.3502 83.2457 77.6502 83.1457 77.4502C83.1457 77.0502 82.4457 78.2502 82.1457 79.2502C81.8457 80.3502 82.2457 80.0502 82.7457 78.8502ZM84.8457 78.2502C85.4457 77.8502 85.9457 77.3502 85.9457 77.1502C85.9457 76.5502 84.8457 76.9502 84.3457 77.7502C83.5457 79.0502 83.6457 79.1502 84.8457 78.2502ZM87.4457 68.5502C87.4457 68.3502 87.4457 68.0502 87.3457 67.9502C87.2457 67.8502 87.1457 68.0502 87.2457 68.3502C87.2457 68.6502 87.3457 68.7502 87.4457 68.5502ZM86.8457 67.2502C86.9457 67.7502 87.7457 66.4502 87.7457 65.8502C87.7457 65.7502 87.5457 65.8502 87.3457 66.1502C87.1457 66.4502 86.8457 66.9502 86.8457 67.2502ZM152.526 72.4502C152.026 73.1502 151.126 74.2502 150.526 74.8502C149.126 76.7502 137.626 88.4502 135.726 90.0502C131.626 93.3502 126.726 96.6502 122.626 98.7502C121.026 99.6502 119.326 100.55 118.926 100.75C116.226 102.55 105.826 104.15 104.026 103.15C103.626 102.85 103.226 102.75 103.026 102.85C102.226 103.35 96.7262 98.5502 95.3262 96.1502C94.8262 95.2502 94.3262 94.8502 93.7262 94.7502C92.7262 94.5502 92.7262 94.3502 93.6262 93.8502C94.2262 93.6502 94.3262 93.3502 94.2262 92.9502C93.3262 89.6502 94.0262 85.1502 96.2262 80.2502C98.2262 75.9502 102.626 68.9502 104.726 66.7502C105.226 66.2502 106.226 65.0502 107.126 64.0502C109.326 61.3502 111.326 59.4502 112.226 59.3502C112.726 59.1502 113.826 59.2502 114.726 59.4502C115.626 59.6502 116.926 59.9502 117.626 60.0502C120.026 60.6502 121.726 61.6502 123.926 63.8502C126.826 66.6502 127.726 68.4502 127.426 70.8502C127.226 73.1502 126.326 75.3502 124.626 77.8502C122.926 80.3502 119.126 84.3502 116.626 86.0502C109.726 90.8502 106.826 92.5502 101.326 94.8502C100.326 95.3502 99.4262 95.8502 99.4262 95.9502C99.4262 97.0502 102.426 97.9502 105.226 97.6502C111.626 97.0502 117.926 94.6502 124.326 90.5502C125.626 89.7502 126.926 89.0502 127.126 89.0502C127.726 89.0502 129.226 87.8502 129.226 87.4502C129.226 87.1502 130.526 86.0502 131.926 85.0502C132.426 84.6502 132.526 84.6502 132.126 85.1502C131.326 86.1502 132.226 85.5502 134.826 83.4502C136.226 82.1502 138.226 80.5502 139.226 79.7502C141.226 78.1502 144.326 75.3502 146.126 73.4502C146.726 72.6502 148.426 70.9502 149.726 69.5502C151.126 68.1502 152.926 66.2502 153.726 65.3502C156.926 61.8502 158.426 60.1502 158.626 60.3502C158.726 60.4502 157.926 61.6502 156.726 63.0502C155.026 65.2502 154.926 65.3502 156.326 63.8502C157.826 62.2502 158.826 61.8502 157.826 63.2502C157.526 63.5502 157.326 64.1502 157.326 64.4502C157.326 64.8502 157.426 64.8502 157.726 64.5502C158.626 63.8502 158.126 64.5502 156.626 66.3502C155.826 67.2502 154.826 68.7502 154.326 69.6502C153.926 70.5502 153.126 71.7502 152.526 72.4502ZM102.426 83.3502C101.026 86.2502 99.4262 89.9502 99.4262 90.6502C99.4262 90.7502 99.7262 90.5502 103.226 88.1502C105.926 86.4502 108.826 84.2502 109.426 83.6502C109.426 83.5502 110.526 82.6502 111.726 81.7502C114.026 79.7502 118.626 75.0502 119.926 73.2502C121.126 71.5502 122.226 67.8502 122.026 66.4502C121.826 65.1502 121.426 64.7502 119.726 64.2502C117.326 63.6502 115.526 64.8502 111.326 70.0502C107.526 74.7502 104.426 79.3502 102.426 83.3502ZM143.226 80.9502C144.726 79.1502 143.826 79.8502 141.526 82.4502C139.926 84.2502 139.726 84.5502 140.826 83.4502C141.726 82.6502 142.726 81.5502 143.226 80.9502ZM192.175 72.7502C194.675 70.1502 194.875 70.2502 194.075 73.3502C193.575 74.9502 193.375 75.3502 191.575 77.4502C189.175 80.2502 188.175 80.8502 185.675 81.0502C184.275 81.1502 183.575 81.1502 183.075 80.8502C182.775 80.6502 182.175 80.3502 181.775 80.1502C180.075 79.4502 176.775 74.6502 176.075 72.1502C175.875 71.3502 175.575 69.2502 175.475 67.5502C175.375 65.8502 175.175 64.3502 175.075 64.1502C174.875 63.9502 174.675 63.9502 173.975 64.3502C173.375 64.6502 173.175 64.8502 173.275 65.0502C173.375 65.2502 173.375 65.2502 173.175 65.1502C172.775 64.9502 171.475 66.1502 171.875 66.4502C172.075 66.5502 172.075 66.5502 171.775 66.5502C171.375 66.4502 169.475 68.2502 168.275 69.7502C167.975 70.1502 167.675 70.4502 167.475 70.4502C167.075 70.5502 166.275 71.4502 166.175 71.9502C166.175 72.2502 165.875 72.5502 165.675 72.6502C165.375 72.7502 165.175 73.0502 165.175 73.3502C165.275 73.5502 165.075 73.9502 164.875 74.2502C164.075 75.1502 163.075 76.7502 161.375 79.6502C160.375 81.2502 159.475 82.7502 159.375 83.0502C159.175 83.2502 158.875 83.9502 158.675 84.5502C157.575 87.3502 157.075 88.4502 155.575 90.9502C154.775 92.3502 153.775 94.0502 153.475 94.5502C153.275 95.0502 152.375 96.5502 151.675 97.7502C150.875 99.0502 150.075 100.55 149.775 101.15C149.075 102.55 147.175 104.75 146.575 104.75C146.375 104.75 145.975 104.75 145.775 104.65C145.575 104.65 145.275 104.45 145.175 104.25C145.075 104.05 144.675 103.85 144.375 103.75C143.975 103.65 143.675 103.45 143.575 103.25C143.475 102.95 143.175 102.35 142.775 101.85L142.275 100.85L142.775 98.5502C143.575 94.4502 145.575 88.8502 148.575 81.9502C149.075 80.7502 149.875 78.7502 150.375 77.5502C150.875 76.4502 151.675 74.3502 152.275 73.0502C152.875 71.6502 153.775 69.4502 154.375 68.0502C155.575 65.3502 156.375 63.6502 157.875 60.9502C158.375 59.9502 159.275 58.2502 159.875 57.0502C160.375 55.9502 161.075 54.7502 161.375 54.5502C161.575 54.2502 161.775 53.9502 161.775 53.7502C161.775 53.6502 161.975 53.4502 162.275 53.4502C164.875 52.9502 164.875 52.9502 165.275 53.5502C165.575 53.8502 165.875 54.0502 166.075 54.0502C166.575 54.0502 166.575 54.8502 166.075 55.8502C165.875 56.2502 165.775 56.7502 165.775 56.9502C165.775 57.1502 165.275 58.1502 164.675 59.1502C162.875 62.2502 161.275 65.4502 160.575 67.6502C160.175 68.7502 158.975 71.7502 157.875 74.3502C155.975 79.0502 155.375 80.4502 155.575 80.4502C155.675 80.4502 156.075 79.7502 156.675 78.8502C157.675 77.3502 158.275 76.7502 157.875 77.8502C157.775 78.1502 157.575 78.4502 157.475 78.5502C157.275 78.8502 154.875 82.8502 154.375 83.8502C153.475 85.7502 154.175 84.9502 156.175 81.5502C157.375 79.7502 158.975 77.0502 159.875 75.8502C162.175 72.3502 168.375 64.8502 170.275 63.1502C171.175 62.3502 171.775 61.7502 171.675 61.7502C171.375 61.7502 168.875 63.7502 168.075 64.5502C166.175 66.4502 161.775 72.0502 159.875 74.8502C158.775 76.6502 157.775 77.6502 158.275 76.5502C158.675 75.6502 163.775 68.8502 166.175 66.0502C168.675 63.1502 170.275 61.7502 171.775 61.0502C173.075 60.4502 176.175 61.0502 176.675 62.0502C176.875 62.3502 177.175 62.7502 177.375 62.8502C178.175 63.3502 179.175 64.9502 179.575 66.3502C179.775 67.0502 180.275 69.3502 180.575 71.5502C181.275 75.4502 181.875 77.3502 182.575 77.7502C182.775 77.8502 183.475 77.8502 184.275 77.7502C185.475 77.6502 185.975 77.4502 188.075 76.0502C189.375 75.1502 191.175 73.6502 192.175 72.7502ZM153.275 76.2502C153.075 76.5502 152.875 76.7502 152.975 76.9502C152.975 77.0502 152.975 77.1502 152.975 77.0502C153.075 77.0502 153.175 76.7502 153.375 76.4502C153.675 75.9502 153.675 75.9502 153.275 76.2502ZM145.675 98.4502C145.975 97.9502 145.875 97.9502 145.575 98.2502C145.375 98.4502 145.175 98.7502 145.175 98.9502C145.175 99.0502 145.275 99.0502 145.275 99.0502C145.375 98.9502 145.475 98.7502 145.675 98.4502ZM151.675 82.0502C152.175 81.2502 153.775 77.6502 153.675 77.4502C153.675 77.3502 153.475 77.3502 153.175 77.3502C152.875 77.3502 152.675 77.6502 152.475 78.1502C152.275 78.5502 152.275 78.8502 152.275 78.8502C152.375 78.8502 152.275 79.1502 152.075 79.4502C151.675 79.9502 150.175 83.4502 150.175 83.8502C150.275 83.9502 150.375 83.8502 150.475 83.7502C150.675 83.6502 150.675 83.6502 150.675 83.8502C150.575 84.0502 150.375 84.1502 150.275 84.0502C150.075 84.0502 149.975 84.1502 149.875 84.3502C149.775 84.6502 149.275 86.1502 148.575 87.6502C147.275 90.7502 146.775 92.2502 147.175 91.9502C147.275 91.8502 147.375 91.9502 147.275 92.1502C147.175 92.3502 147.075 92.4502 146.875 92.4502C146.775 92.3502 146.675 92.3502 146.875 92.5502C147.075 92.8502 146.875 93.8502 146.575 93.6502C146.475 93.6502 146.475 93.7502 146.575 93.9502C146.675 94.1502 146.575 94.3502 146.275 94.3502C146.075 94.3502 145.975 94.4502 146.075 94.7502C146.175 94.9502 146.075 95.5502 145.875 96.0502C145.375 97.1502 145.375 97.3502 145.975 96.4502C146.175 96.0502 147.075 93.9502 147.875 91.7502C148.675 89.5502 149.475 87.6502 149.575 87.4502C149.775 87.2502 150.075 86.3502 150.275 85.6502C150.475 84.8502 150.775 84.0502 150.975 84.0502C151.075 83.8502 151.175 83.6502 151.175 83.3502C151.175 83.1502 151.375 82.5502 151.675 82.0502ZM153.875 75.3502C153.875 75.1502 153.875 75.0502 153.675 75.1502C153.575 75.2502 153.475 75.4502 153.475 75.5502C153.575 75.9502 153.675 75.8502 153.875 75.3502ZM249.206 72.4502C248.706 73.1502 247.806 74.2502 247.206 74.8502C245.806 76.7502 234.306 88.4502 232.406 90.0502C228.306 93.3502 223.406 96.6502 219.306 98.7502C217.706 99.6502 216.006 100.55 215.606 100.75C212.906 102.55 202.506 104.15 200.706 103.15C200.306 102.85 199.906 102.75 199.706 102.85C198.906 103.35 193.406 98.5502 192.006 96.1502C191.506 95.2502 191.006 94.8502 190.406 94.7502C189.406 94.5502 189.406 94.3502 190.306 93.8502C190.906 93.6502 191.006 93.3502 190.906 92.9502C190.006 89.6502 190.706 85.1502 192.906 80.2502C194.906 75.9502 199.306 68.9502 201.406 66.7502C201.906 66.2502 202.906 65.0502 203.806 64.0502C206.006 61.3502 208.006 59.4502 208.906 59.3502C209.406 59.1502 210.506 59.2502 211.406 59.4502C212.306 59.6502 213.606 59.9502 214.306 60.0502C216.706 60.6502 218.406 61.6502 220.606 63.8502C223.506 66.6502 224.406 68.4502 224.106 70.8502C223.906 73.1502 223.006 75.3502 221.306 77.8502C219.606 80.3502 215.806 84.3502 213.306 86.0502C206.406 90.8502 203.506 92.5502 198.006 94.8502C197.006 95.3502 196.106 95.8502 196.106 95.9502C196.106 97.0502 199.106 97.9502 201.906 97.6502C208.306 97.0502 214.606 94.6502 221.006 90.5502C222.306 89.7502 223.606 89.0502 223.806 89.0502C224.406 89.0502 225.906 87.8502 225.906 87.4502C225.906 87.1502 227.206 86.0502 228.606 85.0502C229.106 84.6502 229.206 84.6502 228.806 85.1502C228.006 86.1502 228.906 85.5502 231.506 83.4502C232.906 82.1502 234.906 80.5502 235.906 79.7502C237.906 78.1502 241.006 75.3502 242.806 73.4502C243.406 72.6502 245.106 70.9502 246.406 69.5502C247.806 68.1502 249.606 66.2502 250.406 65.3502C253.606 61.8502 255.106 60.1502 255.306 60.3502C255.406 60.4502 254.606 61.6502 253.406 63.0502C251.706 65.2502 251.606 65.3502 253.006 63.8502C254.506 62.2502 255.506 61.8502 254.506 63.2502C254.206 63.5502 254.006 64.1502 254.006 64.4502C254.006 64.8502 254.106 64.8502 254.406 64.5502C255.306 63.8502 254.806 64.5502 253.306 66.3502C252.506 67.2502 251.506 68.7502 251.006 69.6502C250.606 70.5502 249.806 71.7502 249.206 72.4502ZM199.106 83.3502C197.706 86.2502 196.106 89.9502 196.106 90.6502C196.106 90.7502 196.406 90.5502 199.906 88.1502C202.606 86.4502 205.506 84.2502 206.106 83.6502C206.106 83.5502 207.206 82.6502 208.406 81.7502C210.706 79.7502 215.306 75.0502 216.606 73.2502C217.806 71.5502 218.906 67.8502 218.706 66.4502C218.506 65.1502 218.106 64.7502 216.406 64.2502C214.006 63.6502 212.206 64.8502 208.006 70.0502C204.206 74.7502 201.106 79.3502 199.106 83.3502ZM239.906 80.9502C241.406 79.1502 240.506 79.8502 238.206 82.4502C236.606 84.2502 236.406 84.5502 237.506 83.4502C238.406 82.6502 239.406 81.5502 239.906 80.9502Z" fill="white"/>
</g>
<defs>
<filter id="filter0_d_168_10745" x="0.645508" y="0.450195" width="257.86" height="141.8" filterUnits="userSpaceOnUse" color-interpolation-filters="sRGB">
<feFlood flood-opacity="0" result="BackgroundImageFix"/>
<feColorMatrix in="SourceAlpha" type="matrix" values="0 0 0 0 0 0 0 0 0 0 0 0 0 0 0 0 0 0 127 0" result="hardAlpha"/>
<feOffset dx="3" dy="3"/>
<feComposite in2="hardAlpha" operator="out"/>
<feColorMatrix type="matrix" values="0 0 0 0 0 0 0 0 0 0 0 0 0 0 0 0 0 0 0.5 0"/>
<feBlend mode="normal" in2="BackgroundImageFix" result="effect1_dropShadow_168_10745"/>
<feBlend mode="normal" in="SourceGraphic" in2="effect1_dropShadow_168_10745" result="shape"/>
</filter>
</defs>
</svg>
