<svg width="201" height="150" viewBox="0 0 201 150" fill="none" xmlns="http://www.w3.org/2000/svg">
<path d="M146.534 83.3242H53.7664V93.3643H146.534V83.3242Z" fill="#69655C"/>
<path d="M146.534 95.96H53.7664V106H146.534V95.96Z" fill="#C11E43"/>
<path d="M61.9626 92.4728V84.3335H65.6606C67.2322 84.3335 68.5265 84.7103 68.5265 86.4434C68.5265 87.3476 67.9718 88.0258 66.8624 88.2518C68.3416 88.4025 68.7114 89.2314 68.7114 90.2863C68.7114 92.3208 66.4926 92.3962 65.6606 92.3962L61.9626 92.4715V92.4728ZM63.9965 87.6503H65.3833C65.8455 87.6503 66.4926 87.4242 66.4926 86.5954C66.4926 85.9925 66.0304 85.5404 65.2908 85.5404H63.9965V87.6503ZM63.9965 91.1919H65.1984C65.6606 91.1919 66.6775 91.1919 66.6775 90.0616C66.6775 89.308 66.3077 88.9313 65.2908 88.9313H64.089V91.1919H63.9965Z" fill="white"/>
<path d="M83.5939 84.3335V90.0603C83.5939 91.2659 82.7619 92.5469 80.1733 92.5469C77.8621 92.5469 76.7527 91.5673 76.7527 90.0603V84.3335H78.879V89.9849C78.879 90.9645 79.4337 91.3413 80.1733 91.3413C81.0978 91.3413 81.4676 90.8138 81.4676 89.9849V84.3335H83.5939Z" fill="white"/>
<path d="M93.808 92.4728H91.7742V84.3335H95.657C97.0438 84.3335 97.9682 85.087 97.9682 86.4434C97.9682 87.4983 97.506 88.2518 96.1193 88.4025C96.5815 88.4779 97.9682 88.5532 97.9682 89.9849C97.9682 90.5124 97.9682 92.0194 98.2456 92.3962H96.2117C95.9344 91.8687 96.0268 91.3413 96.0268 90.8138C96.0268 89.8342 96.1193 89.0053 94.5476 89.0053H93.9929V92.4715H93.808V92.4728ZM93.808 87.8764H94.7325C95.5646 87.8764 95.7495 87.1982 95.7495 86.6707C95.7495 85.9172 95.3797 85.6158 94.7325 85.6158H93.808V87.8764Z" fill="white"/>
<path d="M107.073 92.4728V84.3335H112.527V85.6145H109.199V87.649H112.25V88.8546H109.199V91.1906H112.62V92.4715H107.073V92.4728Z" fill="white"/>
<path d="M120.57 92.4728L123.344 84.3335H126.117L128.798 92.4728H126.579L126.025 90.6644H123.159L122.604 92.4728H120.57ZM124.546 85.9172L123.529 89.4588H125.47L124.546 85.9172Z" fill="white"/>
<path d="M142.941 84.3335V90.0603C142.941 91.2659 142.109 92.5469 139.521 92.5469C137.209 92.5469 136.1 91.5673 136.1 90.0603V84.3335H138.226V89.9849C138.226 90.9645 138.781 91.3413 139.521 91.3413C140.445 91.3413 140.815 90.8138 140.815 89.9849V84.3335H142.941Z" fill="white"/>
<path d="M61.5449 96.8733H63.6712L65.2429 102.751L66.9994 96.8733H69.0333L66.4447 105.013H64.041L61.5449 96.8733Z" fill="white"/>
<path d="M74.8529 105.011V96.8718H80.3074V98.1528H76.9792V100.187H80.03V101.393H76.9792V103.729H80.3998V105.01H74.8529V105.011Z" fill="white"/>
<path d="M88.8556 105.011H86.7292V96.8718H90.6121C91.9988 96.8718 92.9233 97.6253 92.9233 98.9817C92.9233 100.037 92.4611 100.79 91.0743 100.941C91.5366 101.016 92.9233 101.092 92.9233 102.523C92.9233 103.051 92.9233 104.558 93.2007 104.935H91.1668C90.8894 104.407 90.9819 103.88 90.9819 103.352C90.9819 102.373 91.0743 101.544 89.5027 101.544H88.948V105.01H88.8556V105.011ZM88.8556 100.415H89.7801C90.6121 100.415 90.797 99.7365 90.797 99.209C90.797 98.4555 90.4272 98.1541 89.7801 98.1541H88.8556V100.415Z" fill="white"/>
<path d="M101.241 105.011V96.8718H103.367V105.011H101.241Z" fill="white"/>
<path d="M118.017 96.8733V98.2296H115.706V105.011H113.579V98.2296H111.268V96.8733H118.017Z" fill="white"/>
<path d="M122.865 105.011L125.639 96.8718H128.412L131.093 105.011H128.875L128.32 103.203H125.454L124.899 105.011H122.865ZM126.933 98.4555L125.916 101.997H127.858L126.933 98.4555Z" fill="white"/>
<path d="M139.09 105.162C136.502 105.162 136.04 103.956 136.132 102.525H138.258C138.258 103.278 138.258 103.956 139.46 103.956C140.2 103.956 140.477 103.58 140.477 103.052C140.477 101.62 136.317 101.47 136.317 99.0584C136.317 97.7774 137.057 96.7979 139.553 96.7979C141.587 96.7979 142.604 97.5514 142.419 99.2091H140.385C140.385 98.6063 140.292 98.0035 139.46 98.0035C138.813 98.0035 138.351 98.3049 138.351 98.8324C138.351 100.339 142.511 100.264 142.511 102.751C142.604 104.861 140.662 105.162 139.09 105.162Z" fill="white"/>
<path d="M100.196 79.8059H100.289C105.836 79.8059 111.015 79.1277 116.007 77.9221C121.369 76.415 126.548 73.3256 129.598 69.4813C134.683 63.3778 139.307 51.6215 139.584 39.9406C139.4 28.2597 134.777 16.4281 129.598 10.3999C126.548 6.55695 121.463 3.54286 116.099 1.95916C111.199 0.678171 105.743 0 100.196 0C94.6495 0 89.2858 0.678171 84.2012 1.88381C78.8391 3.39085 73.8453 6.4803 70.702 10.3246C65.6173 16.4281 60.9933 28.1844 60.7159 39.8653C60.9008 51.5462 65.5233 63.3778 70.702 69.406C73.7528 73.2489 78.8375 76.263 84.2012 77.8467C89.1934 79.0524 94.557 79.7305 100.012 79.7305L100.196 79.8059Z" fill="#69655C"/>
<path d="M136.532 39.8653C136.717 48.6828 133.389 59.3828 130.246 65.1109C126.732 71.5912 121.369 75.5862 113.418 77.3193C109.166 78.2235 104.728 78.6756 100.104 78.6756C95.4816 78.6756 91.0424 78.2235 86.7898 77.3193C78.9316 75.5862 73.4755 71.5925 69.9625 65.1109C66.8192 59.3841 63.491 48.6828 63.6759 39.8653C63.491 31.0478 66.8192 20.3477 69.9625 14.6196C73.4755 8.13935 78.8392 4.14438 86.7898 2.41127C91.0424 1.50705 95.5724 1.05493 100.104 1.05493C104.726 1.05493 109.166 1.50705 113.418 2.41127C121.276 4.14438 126.732 8.13805 130.246 14.6196C133.481 20.3464 136.717 31.0478 136.532 39.8653Z" fill="white"/>
<path d="M100.289 10.4753C104.079 10.4753 107.87 10.9275 111.292 11.681C114.99 12.5099 118.041 14.6197 119.612 17.4831C122.941 23.2852 125.159 31.6506 125.159 39.8653C125.159 48.08 122.941 56.4442 119.612 62.2476C118.041 65.111 115.082 67.1455 111.292 68.0497C107.779 68.8032 103.989 69.2553 100.289 69.2553H100.197C96.4061 69.2553 92.6157 68.8032 89.1935 68.0497C85.4956 67.2208 82.4447 65.111 80.8731 62.2476C77.5449 56.4455 75.3262 48.08 75.3262 39.8653C75.3262 31.6506 77.5449 23.2865 80.8731 17.4831C82.4447 14.6197 85.4956 12.5852 89.1935 11.681C92.7066 10.9275 96.497 10.4753 100.197 10.4753H100.289Z" fill="#69655C"/>
<path d="M105.651 21.704C105.096 20.9505 105.559 21.6287 105.004 20.7998Z" fill="white"/>
<path d="M94.3721 38.3582H81.8899V41.2969H94.3721V38.3582Z" fill="white"/>
<path d="M91.5987 63.904C91.3213 63.4519 91.2289 63.3011 91.2289 62.7737H98.3474C98.3474 63.6026 97.7928 64.3561 96.8683 64.8835C95.8513 65.4864 94.1872 65.6371 93.1703 65.1096C92.5232 64.8835 91.9685 64.4314 91.5987 63.904Z" fill="white"/>
<path d="M99.2719 61.5681H95.4814V60.1364H99.3643L100.566 59.0061C101.121 59.5336 101.213 59.6089 101.768 60.1364H105.651V61.5681H101.768V65.185H99.2719V61.5681Z" fill="white"/>
<path d="M99.7343 57.0469C100.566 56.8209 101.583 56.4441 101.861 55.8413C101.768 54.8617 102.6 54.1082 103.247 53.3547C103.525 53.0533 103.617 52.8272 103.525 52.4504C104.726 52.5258 106.021 53.3547 106.483 54.2589C106.945 55.2385 106.76 56.4441 106.021 57.273C105.096 58.1772 103.802 58.7047 102.23 58.4786C101.213 58.2526 100.289 57.8005 99.7343 57.0469Z" fill="white"/>
<path d="M90.4878 44.0851C89.8407 43.7837 88.9162 43.7083 88.0841 44.0097C87.437 44.1605 86.7898 44.7633 86.7898 45.2907V49.5105C86.7898 49.8119 86.5125 49.9626 86.0503 49.9626C85.6805 49.9626 85.4031 49.8119 85.4031 49.5105V45.2154C85.4031 44.7633 85.3107 44.3112 84.8484 43.9344L82.075 44.6879L81.7976 44.7633C82.5372 45.2154 82.8145 45.2154 82.907 45.8936V51.6957L82.9994 51.9217L83.0919 52.0724L83.1843 52.2232C83.6466 52.826 84.3862 53.052 84.9409 53.1274C85.2182 53.2027 85.588 53.2027 85.8654 53.2027C86.605 53.2027 87.2521 53.2027 87.9917 52.7506C89.1011 51.9971 88.9162 50.7915 88.9162 48.9077C88.9162 48.3802 89.0086 48.0788 89.3784 47.7774C89.7482 47.5513 90.118 47.476 90.5803 47.5513C91.0425 47.6267 91.1349 47.702 91.5972 47.9281C91.6896 46.4964 91.7821 44.6126 90.4878 44.0851Z" fill="white"/>
<path d="M116.007 51.0188C113.973 49.4364 110.552 47.1758 110.275 46.1962C109.998 45.5934 110.09 44.7645 110.09 44.0863C110.645 43.7096 111.107 43.4082 111.847 42.9561C111.754 44.0863 111.569 45.2166 112.309 45.8948C113.973 47.2511 115.452 48.4568 116.931 49.5871C117.486 50.0392 117.948 50.7927 117.579 51.3955C117.394 51.6969 117.209 52.0737 116.931 52.2997C116.747 51.7723 116.469 51.3955 116.007 51.0188Z" fill="white"/>
<path d="M104.634 42.8794H108.239V51.6216H104.634V42.8794Z" fill="white"/>
<path d="M112.771 43.7083C113.141 43.3315 113.326 43.2562 113.788 42.8794L114.713 43.7836V46.2702C116.007 45.7428 115.729 44.2357 115.729 42.9547C116.469 43.4822 116.839 43.7836 117.578 44.3111C117.948 45.8181 116.931 46.647 116.099 47.7019L112.864 45.2153V43.7083H112.771Z" fill="white"/>
<path d="M115.73 37.002L116.192 35.3442L117.763 35.1182V30.9738C117.116 31.0492 116.931 31.1245 116.377 31.1245V27.9597C115.545 28.1104 114.62 28.3365 113.788 28.4872V33.6865C113.788 33.9126 113.326 33.9879 113.141 33.9879H113.049C112.771 33.9879 112.401 33.8372 112.401 33.6111V28.6379L109.905 28.9393V31.0492C108.981 32.5562 107.686 33.9126 106.392 35.1935C107.779 35.2689 107.871 35.2689 109.258 35.3442L110.09 36.8513H115.73V37.002Z" fill="white"/>
<path d="M86.8822 36.0222C86.8822 34.6659 86.7897 33.7617 86.6973 32.4053C87.252 32.2546 87.7142 32.556 88.084 32.7821C88.0224 33.9375 87.9915 35.0929 87.9915 36.2483H86.7897L86.8822 36.0222Z" fill="white"/>
<path d="M86.6974 28.1089C86.4201 26.7525 86.4201 26.6772 86.2352 25.6976H85.2183V24.718H89.8407V25.6976H88.7313L88.2691 28.8624C87.8068 28.561 87.2521 28.2596 86.6974 28.1089Z" fill="white"/>
<path d="M86.5125 24.1153C84.9408 22.759 84.8484 20.7245 85.1257 18.916C85.4031 19.5942 85.9578 20.1217 86.7898 20.4231C86.6974 20.0463 86.3276 19.7449 86.1427 19.3681C85.7729 18.6146 85.7729 17.5597 86.42 16.8815C86.8823 16.3541 87.437 16.128 88.0841 15.9773C87.8068 16.5801 87.7143 17.3336 88.0841 17.9365C88.3923 17.7355 88.6696 17.5597 88.9161 17.409C89.0086 17.3336 89.101 17.2583 89.1935 17.1829C89.8406 18.2379 90.4878 19.7449 90.118 21.0259L89.8406 21.5534C89.7482 20.6491 89.5633 20.2724 88.8237 19.8956C88.7312 20.4231 89.101 20.7998 89.1935 21.478C89.4708 22.5329 89.2859 23.5125 88.4539 24.1153H86.5125Z" fill="white"/>
<path d="M105.651 21.704L104.079 23.1357C103.617 22.8343 103.617 22.759 103.155 22.3822C103.987 21.704 104.079 21.6287 105.004 20.7998" fill="white"/>
<path d="M107.777 18.2366C108.147 17.031 108.24 15.5993 109.996 15.0718C110.643 14.9211 111.475 14.9964 112.03 15.3732C112.77 15.8253 112.954 16.5035 112.77 17.1817C112.307 18.6134 110.273 18.9148 108.702 19.2162L107.777 18.2366Z" fill="white"/>
<path d="M118.78 38.283V41.297H106.298V38.3583L118.78 38.283Z" fill="white"/>
<path d="M88.6388 58.1772C88.1765 56.2934 90.95 55.6152 91.5971 54.0328C92.1518 51.3955 92.2443 48.6828 94.463 46.647C94.6479 42.804 96.2196 39.4118 99.5477 36.6238C99.3628 35.7949 98.993 35.0414 98.6232 34.2125C98.161 34.2125 97.8836 34.1372 97.5138 33.8358C97.2365 33.5344 97.1441 33.233 97.0516 32.8562C95.8498 34.0618 94.463 35.3428 92.8914 36.1717C92.6141 36.3224 92.2443 36.021 91.6896 35.6442C89.7481 34.3632 89.3783 31.5752 86.42 31.6506C85.0332 31.2738 85.1257 29.9928 84.9408 29.0132C85.403 28.7118 86.2351 28.7118 86.8822 28.9379C88.7312 29.7668 89.933 31.4245 91.6896 32.5548C92.1518 32.8562 92.6141 33.233 92.9838 33.3837C94.0932 32.5548 95.0177 31.8766 95.8498 30.671C96.4045 29.9928 97.329 29.6914 98.2534 29.616L98.993 28.9379L98.6232 27.2801C97.8836 26.5266 97.3289 25.6977 96.8667 24.8689C97.1441 23.8893 97.2365 22.759 98.4383 22.2315C99.1779 21.8548 99.8251 22.759 100.472 22.1562C100.934 22.0808 101.304 22.1562 101.674 22.3822C102.136 23.0604 102.783 23.7386 102.783 24.5674C102.506 25.321 102.044 26.0745 101.582 26.828C101.489 26.9787 101.212 27.0541 101.027 27.1294C101.119 27.4308 101.212 27.8076 101.489 28.109C101.859 28.1844 102.229 28.2597 102.599 28.1844C102.968 27.3555 104.078 26.9787 105.002 26.6773L107.036 25.547C106.666 24.266 107.683 23.1357 107.129 21.8548C105.927 21.4026 105.649 20.3477 105.372 19.4435C105.557 18.916 105.927 18.3132 106.389 17.8611L106.481 17.9364C107.591 18.9914 108.608 20.1217 108.978 21.4026C109.162 23.1357 109.347 24.8688 109.255 26.602C108.145 27.5062 106.759 28.0336 105.557 28.7118L104.632 30.2189C104.54 31.7259 103.985 33.0823 103.708 34.5893C104.54 36.3978 105.464 38.7337 104.725 40.3914C104.17 41.371 103.061 41.8985 102.229 42.4259L100.102 43.7823C102.229 45.6661 101.674 47.8513 101.766 50.6393C101.766 51.3175 103.246 51.845 102.414 52.5985C101.766 53.4274 100.75 54.1809 100.934 55.2358C100.287 56.1401 98.7157 56.2908 97.9761 56.2908C97.7912 56.2908 97.6987 56.2154 97.6987 56.0647C97.8836 55.6126 98.2534 55.2358 98.5308 54.7837C99.2704 53.8041 98.9006 52.5232 99.9175 51.6189C99.1779 49.5844 97.9761 47.6253 97.6987 45.44V45.2893C97.0516 46.2689 97.4214 47.2485 97.7912 48.0774C95.6649 50.2626 93.4461 52.2971 93.4461 55.0851C92.5216 56.3661 91.3198 57.5718 90.5802 58.9281C90.3953 59.1542 89.933 58.9281 89.6557 58.8528C89.0085 58.9281 88.9161 58.6267 88.6388 58.1746V58.1772Z" fill="white"/>
<path d="M111.569 48.9078C113.603 50.4902 117.024 52.7508 117.301 53.7303C117.578 54.3332 117.486 55.162 117.486 55.9156C116.931 56.2923 116.469 56.5937 115.729 57.0458C115.822 55.9155 116.007 54.7853 115.267 54.1071C113.603 52.7508 112.124 51.5451 110.645 50.4148C110.09 49.9627 109.628 49.2092 109.998 48.6064C110.183 48.305 110.367 47.9282 110.645 47.7021C110.83 48.2296 111.199 48.6064 111.569 48.9078Z" fill="white"/>
<path d="M114.805 56.2932C114.435 56.67 114.25 56.7453 113.788 57.1221L112.864 56.2179V53.7313C111.569 54.2587 111.847 55.7658 111.847 57.0468C111.107 56.5193 110.737 56.2179 109.998 55.6904C109.628 54.1834 110.645 53.3545 111.477 52.2996L114.713 54.7862V56.2932H114.805Z" fill="white"/>
<path d="M109.443 63.904C109.72 63.4519 109.813 63.3011 109.813 62.7737H102.694C102.694 63.6026 103.249 64.3561 104.173 64.8835C105.19 65.4864 106.854 65.6371 107.871 65.1096C108.518 64.8835 109.073 64.4314 109.443 63.904Z" fill="white"/>
<path d="M101.491 76.6398C101.491 75.0574 103.432 74.2286 104.634 73.1736C105.004 72.9476 105.096 72.4201 104.819 71.968C104.634 71.6666 104.449 71.5912 104.172 71.5159C103.71 71.4405 103.34 71.5159 103.155 71.6666C102.785 71.968 102.693 72.3447 102.693 72.7215L101.306 72.7969C101.214 72.194 101.398 71.5912 101.861 71.1391C102.508 70.6116 103.432 70.4609 104.357 70.4609C105.096 70.5363 105.928 70.9131 106.298 71.5912C106.668 72.2694 106.576 73.1736 105.928 73.7011C105.096 74.3793 104.079 74.756 103.432 75.5849L106.853 75.4342C106.853 75.811 106.945 76.1124 106.945 76.4138L101.491 76.6398Z" fill="#69655C"/>
<path d="M89.3783 69.6322L87.1596 75.2836L85.7728 74.9069L87.3445 71.0639V70.9886C86.7898 70.8379 86.0502 70.6871 85.4955 70.5364L85.7728 69.7829C86.5124 69.9336 87.252 70.009 87.8992 69.6322C88.0841 69.4815 88.1765 69.4815 88.269 69.3308L89.3783 69.6322Z" fill="#69655C"/>
<path d="M116.469 72.7214C116.284 72.1939 115.915 71.7418 115.175 71.5911L114.713 71.5158C115.175 71.2897 115.545 70.7622 115.452 70.2348C115.36 69.632 114.805 69.3305 114.158 69.1045C113.603 68.9538 112.956 68.9538 112.309 69.1045C111.662 69.2552 111.107 69.4812 110.645 69.7827C110.183 70.2348 109.905 70.6869 110.183 71.2897C110.368 71.8172 111.015 72.1186 111.569 72.1186L111.2 72.3446C110.645 72.7967 110.552 73.3242 110.737 73.8517C110.922 74.4545 111.477 74.982 112.217 75.1327C112.771 75.2834 113.418 75.208 114.066 75.1327C114.713 74.982 115.36 74.7559 115.73 74.4545C116.377 74.0024 116.654 73.3242 116.469 72.7214ZM111.754 71.139C111.569 70.9129 111.569 70.4608 111.847 70.2348C112.032 70.0841 112.309 70.0087 112.586 69.9334C112.864 69.858 113.141 69.858 113.418 69.9334C113.788 70.0087 114.066 70.3855 114.066 70.6869C114.066 70.9129 113.973 71.0637 113.788 71.2144C113.603 71.3651 113.326 71.4404 113.141 71.5158C112.864 71.5911 112.586 71.5911 112.401 71.5158C112.032 71.4404 111.847 71.3651 111.754 71.139ZM114.713 73.8517C114.528 74.0024 114.158 74.1531 113.881 74.2284C113.511 74.3038 113.141 74.3038 112.864 74.2284C112.494 74.1531 112.309 73.927 112.217 73.6256C112.124 73.2489 112.217 72.8721 112.586 72.646C112.771 72.5707 113.049 72.42 113.233 72.42C113.511 72.3446 113.788 72.3446 113.973 72.3446C114.435 72.42 114.805 72.7214 114.898 73.0982C115.082 73.3242 114.99 73.6256 114.713 73.8517Z" fill="#69655C"/>
<path d="M97.9778 74.8312C97.9778 74.2284 97.7929 73.7763 97.1457 73.3995L96.7759 73.2488C97.3306 73.0981 97.8853 72.7214 97.8853 72.1939C97.9778 71.5911 97.608 71.139 97.1457 70.8375C96.6835 70.5361 96.0364 70.4608 95.3892 70.3854C94.7421 70.3101 94.0949 70.3854 93.5402 70.6115C92.9855 70.9129 92.5233 71.365 92.5233 71.8925C92.5233 72.4199 92.9855 72.8721 93.5402 73.0228L93.1704 73.1735C92.4309 73.4749 92.246 73.927 92.1535 74.5298C92.0611 75.1326 92.5233 75.7354 93.1704 76.1122C93.6327 76.3383 94.2798 76.489 95.0194 76.5643C95.6666 76.5643 96.3137 76.489 96.8684 76.3383C97.4231 76.0369 97.8853 75.434 97.9778 74.8312ZM94.0025 72.1939C93.91 71.8925 94.0949 71.5157 94.4647 71.365C94.6496 71.2897 95.0194 71.2143 95.2968 71.2143C95.5741 71.2143 95.8515 71.2897 96.0364 71.4404C96.4062 71.6664 96.4986 72.0432 96.4062 72.2692C96.3137 72.4953 96.1288 72.5706 95.9439 72.7214C95.759 72.7967 95.4817 72.7967 95.2043 72.7967C94.927 72.7967 94.6496 72.7214 94.4647 72.646C94.2798 72.5706 94.0949 72.4199 94.0025 72.1939ZM95.9439 75.434C95.6666 75.5847 95.3892 75.5847 95.0194 75.5847C94.6496 75.5847 94.2798 75.5094 94.0949 75.3587C93.8176 75.208 93.6327 74.9066 93.6327 74.6052C93.6327 74.2284 93.91 73.8516 94.3723 73.7009C94.5572 73.6256 94.8345 73.6256 95.1119 73.6256C95.3892 73.6256 95.6666 73.7009 95.8515 73.7763C96.3137 73.927 96.4986 74.3038 96.4986 74.6805C96.4062 75.0573 96.2213 75.2833 95.9439 75.434Z" fill="#69655C"/>
<path d="M129.567 17.1238L122.946 19.4514L123.532 20.5585L130.153 18.2308L129.567 17.1238Z" fill="#69655C"/>
<path d="M105.096 8.89284L103.34 2.78931L104.911 2.94001C105.189 4.44706 105.559 6.18016 105.928 7.3858C106.576 6.18016 107.315 4.59776 108.055 3.16607L109.626 3.31677L106.483 8.9682L105.096 8.89284Z" fill="#69655C"/>
<path d="M76.7128 12.3592L75.1412 14.6951L73.7545 14.0923L75.6034 11.3796L74.5865 10.9275L71.9963 14.6951L78.2845 17.5585L80.873 13.7909L79.8561 13.3388L78.0071 16.0514L76.2506 15.2226L77.8222 12.8113L76.7128 12.3592Z" fill="#69655C"/>
<path d="M72.921 37.454C72.5512 36.8512 71.7191 36.5498 70.8871 36.6251C70.1475 36.7005 69.5928 37.0773 69.3154 37.6801C69.223 37.3033 68.7608 36.8512 68.1136 36.7759C67.374 36.7005 66.7269 36.8512 66.3571 37.3787C65.8948 37.9061 66.0797 40.0914 66.0797 41.3723H73.2908V40.9202C73.1059 38.5843 73.2908 38.3583 72.921 37.454ZM68.8532 40.1667H67.0967C67.1891 38.8104 66.9118 38.0568 67.9287 37.9815C68.5759 37.9815 68.6683 38.0568 68.8532 38.3583V40.1667ZM71.904 40.1667H69.8701C69.8701 38.8857 69.6852 38.0568 70.6097 37.9061C70.9795 37.8308 71.3493 37.8308 71.6267 38.0568C72.0889 38.3583 71.904 38.8857 71.904 40.1667Z" fill="#69655C"/>
<path d="M130.246 21.5535L131.355 21.3262L132.834 25.924L131.725 26.15L131.17 24.4169L125.344 25.6979L124.974 24.4923L130.8 23.2866L130.246 21.5535Z" fill="#69655C"/>
<path d="M93.6326 9.19422C92.8005 9.26957 91.9685 9.26957 91.3213 8.89281C90.7667 8.5914 90.5818 8.28999 90.3969 7.83788L89.5648 3.61815L91.044 3.39209L91.876 7.61182C91.9685 7.98858 92.3383 8.13929 92.7081 8.21464C92.893 8.28999 93.1703 8.28999 93.4477 8.21464" fill="#69655C"/>
<path d="M93.6327 9.19418C94.4647 9.11883 95.2043 8.81742 95.6665 8.36531C96.1288 7.98855 96.1288 7.53643 96.1288 7.15967L95.2967 2.93994L93.8176 3.166L94.6496 7.38573C94.742 7.68714 94.4647 8.0639 94.0949 8.2146C93.91 8.28996 93.6327 8.36531 93.4478 8.36531" fill="#69655C"/>
<path d="M133.574 29.9176L126.085 28.7119L126.27 29.9176L127.934 30.1436L128.304 32.2535L126.825 32.8563L127.01 34.0619L133.851 31.1985L133.574 29.9176ZM129.413 31.8014L129.136 30.3697L132.279 30.7464L129.413 31.8014Z" fill="#69655C"/>
<path d="M132.464 40.0914H132.834C133.296 39.8654 133.389 39.3379 133.389 38.9612C133.389 38.5091 133.204 38.1323 132.742 37.9816C132.464 37.9062 132.187 37.9062 132.002 38.1323C131.17 39.1119 131.725 41.2217 129.599 41.5985C128.674 41.7492 127.842 41.3724 127.38 40.7696C126.733 39.79 126.64 38.3583 127.38 37.3788C127.842 36.9267 128.489 36.6252 129.136 36.6252L129.229 37.7555C128.766 37.8309 128.304 37.9816 128.119 38.3583C127.842 38.9612 127.842 39.8654 128.397 40.2422C128.582 40.3929 129.044 40.3929 129.321 40.3175C130.153 39.79 129.968 38.5844 130.431 37.7555C130.615 37.3788 130.985 37.0774 131.355 36.8513C132.095 36.6252 133.019 36.7006 133.666 37.1527C134.591 37.9062 134.683 39.3379 134.221 40.2422C133.944 40.845 133.112 41.2971 132.28 41.3724L132.187 40.2422L132.464 40.0914Z" fill="#69655C"/>
<path d="M74.1243 31.1232C74.0319 31.8014 73.6621 32.4042 73.1074 32.8563C72.6451 33.2331 72.1829 33.2331 71.6282 33.2331L66.451 32.5549L66.7284 31.3493L71.9055 32.0274C72.3678 32.1028 72.7376 31.8767 72.9225 31.5753C73.0149 31.4246 73.1074 31.1986 73.1074 31.0479" fill="#69655C"/>
<path d="M74.1243 31.1231C74.2168 30.4449 74.2168 29.7668 73.7545 29.2393C73.3847 28.7872 73.0149 28.6365 72.4602 28.4858L67.2831 27.8076L67.0057 29.0133L72.1829 29.6914C72.5527 29.7668 72.83 30.0682 72.9225 30.3696C73.0149 30.5203 73.0149 30.7464 72.9225 30.8971" fill="#69655C"/>
<path d="M82.1673 5.87769L80.873 6.55586L82.4447 12.6594L83.739 12.0566L83.3692 10.7002L85.5879 9.56995L86.8822 10.4742L88.1765 9.87136L82.1673 5.87769ZM83.0918 9.72065L82.2598 7.23403L84.571 8.96713L83.0918 9.72065Z" fill="#69655C"/>
<path d="M117.394 7.83794L114.343 6.78171L114.897 5.57607L118.41 6.78171L118.873 5.87748L113.973 4.21973L111.199 9.64639L116.099 11.3041L116.561 10.3999L113.048 9.19428L113.788 7.68723L116.839 8.74217L117.394 7.83794Z" fill="#69655C"/>
<path d="M73.1982 20.8739C73.1982 20.4972 73.1982 20.1204 72.736 19.819C72.3662 19.5176 71.719 19.2915 71.0719 19.3669C69.5003 19.593 69.2229 21.1 68.3909 23.4359L75.3245 25.0937L75.7868 23.888L73.0133 23.2099H72.9209C73.1058 22.6824 73.3831 22.0042 73.4756 21.8535C73.9378 20.9493 75.7868 21.8535 76.5264 21.7782L76.9886 20.5725C75.7868 20.7232 74.1227 19.819 73.1982 20.8739ZM71.8115 22.9838L69.9625 22.5317C70.3323 21.5521 70.5172 20.4972 71.4417 20.5725C71.8115 20.6479 71.9964 20.7232 72.2737 20.8739C72.5511 21.2507 72.0888 22.0042 71.8115 22.9838Z" fill="#69655C"/>
<path d="M123.865 9.11914L118.133 12.7361L119.058 13.7156L121.369 12.2839L121.461 12.2086C121.924 12.6607 122.386 13.2635 122.478 13.4142C123.126 14.3185 121.092 14.9966 120.814 15.5241L121.739 16.5037C122.386 15.6748 124.327 15.072 123.68 13.8663C124.05 14.0924 124.42 14.3185 124.975 14.1677C125.529 14.0924 126.084 13.791 126.361 13.3389C127.101 12.1332 125.714 11.1537 123.865 9.11914ZM124.975 12.8114C124.697 13.0375 124.512 13.1128 124.142 13.1128C123.588 13.1128 123.126 12.4346 122.294 11.6058L123.773 10.7015C124.605 11.5304 125.529 12.2839 124.975 12.8114Z" fill="#69655C"/>
</svg>
