<svg width="201" height="150" viewBox="0 0 201 150" fill="none" xmlns="http://www.w3.org/2000/svg">
<path d="M146.533 83.3242H53.7656V93.3643H146.533V83.3242Z" fill="#69655C"/>
<path d="M146.533 95.96H53.7656V106H146.533V95.96Z" fill="#C11E43"/>
<path d="M61.9609 92.4733V84.334H65.6589C67.2305 84.334 68.5248 84.7107 68.5248 86.4438C68.5248 87.3481 67.9701 88.0262 66.8607 88.2523C68.3399 88.403 68.7097 89.2319 68.7097 90.2868C68.7097 92.3213 66.4909 92.3967 65.6589 92.3967L61.9609 92.472V92.4733ZM63.9948 87.6508H65.3815C65.8438 87.6508 66.4909 87.4247 66.4909 86.5958C66.4909 85.993 66.0287 85.5409 65.2891 85.5409H63.9948V87.6508ZM63.9948 91.1923H65.1967C65.6589 91.1923 66.6758 91.1923 66.6758 90.0621C66.6758 89.3085 66.306 88.9318 65.2891 88.9318H64.0873V91.1923H63.9948Z" fill="white"/>
<path d="M83.5932 84.334V90.0608C83.5932 91.2664 82.7611 92.5474 80.1726 92.5474C77.8613 92.5474 76.752 91.5678 76.752 90.0608V84.334H78.8783V89.9854C78.8783 90.965 79.433 91.3417 80.1726 91.3417C81.0971 91.3417 81.4668 90.8143 81.4668 89.9854V84.334H83.5932Z" fill="white"/>
<path d="M93.8073 92.4733H91.7734V84.334H95.6563C97.043 84.334 97.9675 85.0875 97.9675 86.4438C97.9675 87.4988 97.5053 88.2523 96.1185 88.403C96.5808 88.4784 97.9675 88.5537 97.9675 89.9854C97.9675 90.5129 97.9675 92.0199 98.2449 92.3967H96.211C95.9336 91.8692 96.0261 91.3417 96.0261 90.8143C96.0261 89.8347 96.1185 89.0058 94.5469 89.0058H93.9922V92.472H93.8073V92.4733ZM93.8073 87.8768H94.7318C95.5638 87.8768 95.7487 87.1987 95.7487 86.6712C95.7487 85.9177 95.3789 85.6163 94.7318 85.6163H93.8073V87.8768Z" fill="white"/>
<path d="M107.072 92.4733V84.334H112.527V85.615H109.199V87.6495H112.249V88.8551H109.199V91.191H112.619V92.472H107.072V92.4733Z" fill="white"/>
<path d="M120.57 92.4733L123.344 84.334H126.117L128.798 92.4733H126.579L126.025 90.6649H123.159L122.604 92.4733H120.57ZM124.546 85.9177L123.529 89.4592H125.47L124.546 85.9177Z" fill="white"/>
<path d="M142.941 84.334V90.0608C142.941 91.2664 142.109 92.5474 139.52 92.5474C137.209 92.5474 136.1 91.5678 136.1 90.0608V84.334H138.226V89.9854C138.226 90.965 138.781 91.3417 139.52 91.3417C140.445 91.3417 140.815 90.8143 140.815 89.9854V84.334H142.941Z" fill="white"/>
<path d="M61.5449 96.873H63.6712L65.2429 102.751L66.9994 96.873H69.0333L66.4447 105.012H64.041L61.5449 96.873Z" fill="white"/>
<path d="M74.8516 105.011V96.8721H80.306V98.1531H76.9779V100.188H80.0287V101.393H76.9779V103.729H80.3985V105.01H74.8516V105.011Z" fill="white"/>
<path d="M88.8548 105.011H86.7285V96.8721H90.6114C91.9981 96.8721 92.9226 97.6256 92.9226 98.9819C92.9226 100.037 92.4603 100.79 91.0736 100.941C91.5359 101.016 92.9226 101.092 92.9226 102.523C92.9226 103.051 92.9226 104.558 93.1999 104.935H91.1661C90.8887 104.407 90.9812 103.88 90.9812 103.352C90.9812 102.373 91.0736 101.544 89.502 101.544H88.9473V105.01H88.8548V105.011ZM88.8548 100.415H89.7793C90.6114 100.415 90.7963 99.7368 90.7963 99.2093C90.7963 98.4558 90.4265 98.1544 89.7793 98.1544H88.8548V100.415Z" fill="white"/>
<path d="M101.24 105.011V96.8721H103.367V105.011H101.24Z" fill="white"/>
<path d="M118.016 96.873V98.2294H115.705V105.011H113.579V98.2294H111.268V96.873H118.016Z" fill="white"/>
<path d="M122.865 105.011L125.639 96.8721H128.412L131.093 105.011H128.874L128.32 103.203H125.454L124.899 105.011H122.865ZM126.933 98.4558L125.916 101.997H127.857L126.933 98.4558Z" fill="white"/>
<path d="M139.09 105.162C136.502 105.162 136.039 103.956 136.132 102.525H138.258C138.258 103.278 138.258 103.956 139.46 103.956C140.2 103.956 140.477 103.58 140.477 103.052C140.477 101.62 136.317 101.47 136.317 99.0584C136.317 97.7774 137.056 96.7979 139.552 96.7979C141.586 96.7979 142.603 97.5514 142.418 99.2091H140.385C140.385 98.6063 140.292 98.0035 139.46 98.0035C138.813 98.0035 138.351 98.3049 138.351 98.8324C138.351 100.339 142.511 100.264 142.511 102.751C142.603 104.861 140.662 105.162 139.09 105.162Z" fill="white"/>
<path d="M100.195 79.8059H100.288C105.835 79.8059 111.013 79.1277 116.006 77.9221C121.368 76.415 126.546 73.3256 129.597 69.4813C134.682 63.3778 139.306 51.6215 139.583 39.9406C139.398 28.2597 134.776 16.4281 129.597 10.3999C126.546 6.55695 121.462 3.54286 116.098 1.95916C111.198 0.678171 105.742 0 100.195 0C94.6484 0 89.2847 0.678171 84.2001 1.88381C78.838 3.39085 73.8442 6.4803 70.7009 10.3246C65.6162 16.4281 60.9922 28.1844 60.7148 39.8653C60.8997 51.5462 65.5222 63.3778 70.7009 69.406C73.7517 73.2489 78.8364 76.263 84.2001 77.8467C89.1923 79.0524 94.5559 79.7305 100.01 79.7305L100.195 79.8059Z" fill="#69655C"/>
<path d="M136.531 39.865C136.716 48.6825 133.388 59.3826 130.245 65.1107C126.732 71.591 121.368 75.5859 113.418 77.319C109.165 78.2233 104.727 78.6754 100.103 78.6754C95.4809 78.6754 91.0418 78.2233 86.7892 77.319C78.931 75.5859 73.4749 71.5923 69.9619 65.1107C66.8186 59.3839 63.4904 48.6825 63.6753 39.865C63.4904 31.0475 66.8186 20.3475 69.9619 14.6194C73.4749 8.1391 78.8386 4.14413 86.7892 2.41103C91.0418 1.5068 95.5718 1.05469 100.103 1.05469C104.726 1.05469 109.165 1.5068 113.418 2.41103C121.276 4.14413 126.732 8.1378 130.245 14.6194C133.481 20.3462 136.716 31.0475 136.531 39.865Z" fill="white"/>
<path d="M100.289 10.4756C104.079 10.4756 107.87 10.9277 111.292 11.6812C114.99 12.5101 118.041 14.62 119.612 17.4834C122.941 23.2855 125.159 31.6509 125.159 39.8656C125.159 48.0803 122.941 56.4444 119.612 62.2478C118.041 65.1112 115.082 67.1457 111.292 68.0499C107.779 68.8035 103.989 69.2556 100.289 69.2556H100.197C96.4061 69.2556 92.6157 68.8035 89.1935 68.0499C85.4956 67.2211 82.4447 65.1112 80.8731 62.2478C77.5449 56.4457 75.3262 48.0803 75.3262 39.8656C75.3262 31.6509 77.5449 23.2868 80.8731 17.4834C82.4447 14.62 85.4956 12.5855 89.1935 11.6812C92.7066 10.9277 96.497 10.4756 100.197 10.4756H100.289Z" fill="#69655C"/>
<path d="M105.651 21.704C105.096 20.9505 105.559 21.6287 105.004 20.7998L105.651 21.704Z" fill="white"/>
<path d="M94.3709 38.3584H81.8887V41.2971H94.3709V38.3584Z" fill="white"/>
<path d="M91.5983 63.9037C91.321 63.4516 91.2285 63.3009 91.2285 62.7734H98.3471C98.3471 63.6023 97.7924 64.3558 96.8679 64.8833C95.851 65.4861 94.1869 65.6368 93.1699 65.1094C92.5228 64.8833 91.9681 64.4312 91.5983 63.9037Z" fill="white"/>
<path d="M99.2709 61.5678H95.4805V60.1361H99.3633L100.565 59.0059C101.12 59.5333 101.212 59.6087 101.767 60.1361H105.65V61.5678H101.767V65.1847H99.2709V61.5678Z" fill="white"/>
<path d="M99.7344 57.0467C100.566 56.8206 101.583 56.4439 101.861 55.8411C101.768 54.8615 102.6 54.1079 103.247 53.3544C103.525 53.053 103.617 52.827 103.525 52.4502C104.727 52.5255 106.021 53.3544 106.483 54.2587C106.945 55.2382 106.76 56.4439 106.021 57.2727C105.096 58.177 103.802 58.7044 102.23 58.4784C101.214 58.2523 100.289 57.8002 99.7344 57.0467Z" fill="white"/>
<path d="M90.4871 44.0846C89.8399 43.7832 88.9154 43.7079 88.0834 44.0093C87.4363 44.16 86.7891 44.7628 86.7891 45.2902V49.51C86.7891 49.8114 86.5118 49.9621 86.0495 49.9621C85.6797 49.9621 85.4024 49.8114 85.4024 49.51V45.2149C85.4024 44.7628 85.3099 44.3107 84.8477 43.9339L82.0742 44.6874L81.7969 44.7628C82.5365 45.2149 82.8138 45.2149 82.9063 45.8931V51.6952L82.9987 51.9213L83.0912 52.072L83.1836 52.2227C83.6459 52.8255 84.3854 53.0515 84.9401 53.1269C85.2175 53.2022 85.5873 53.2022 85.8646 53.2022C86.6042 53.2022 87.2514 53.2022 87.991 52.7501C89.1003 51.9966 88.9154 50.791 88.9154 48.9072C88.9154 48.3797 89.0079 48.0783 89.3777 47.7769C89.7475 47.5508 90.1173 47.4755 90.5795 47.5508C91.0418 47.6262 91.1342 47.7015 91.5965 47.9276C91.6889 46.4959 91.7814 44.6121 90.4871 44.0846Z" fill="white"/>
<path d="M116.006 51.0188C113.972 49.4364 110.551 47.1758 110.274 46.1962C109.997 45.5934 110.089 44.7645 110.089 44.0863C110.644 43.7096 111.106 43.4082 111.846 42.9561C111.753 44.0863 111.568 45.2166 112.308 45.8948C113.972 47.2511 115.451 48.4568 116.93 49.5871C117.485 50.0392 117.947 50.7927 117.577 51.3955C117.392 51.6969 117.208 52.0737 116.93 52.2997C116.745 51.7723 116.468 51.3955 116.006 51.0188Z" fill="white"/>
<path d="M104.633 42.8799H108.238V51.6221H104.633V42.8799Z" fill="white"/>
<path d="M112.77 43.7088C113.139 43.332 113.324 43.2566 113.786 42.8799L114.711 43.7841V46.2707C116.005 45.7433 115.728 44.2362 115.728 42.9552C116.467 43.4827 116.837 43.7841 117.577 44.3116C117.947 45.8186 116.93 46.6475 116.098 47.7024L112.862 45.2158V43.7088H112.77Z" fill="white"/>
<path d="M115.728 37.0022L116.19 35.3445L117.762 35.1184V30.9741C117.115 31.0494 116.93 31.1248 116.375 31.1248V27.96C115.543 28.1107 114.619 28.3367 113.787 28.4874V33.6867C113.787 33.9128 113.324 33.9881 113.139 33.9881H113.047C112.77 33.9881 112.4 33.8374 112.4 33.6114V28.6381L109.904 28.9395V31.0494C108.979 32.5565 107.685 33.9128 106.391 35.1938C107.777 35.2691 107.87 35.2691 109.257 35.3445L110.089 36.8515H115.728V37.0022Z" fill="white"/>
<path d="M86.8822 36.0227C86.8822 34.6664 86.7897 33.7621 86.6973 32.4058C87.252 32.2551 87.7142 32.5565 88.084 32.7826C88.0224 33.938 87.9915 35.0934 87.9915 36.2488H86.7897L86.8822 36.0227Z" fill="white"/>
<path d="M86.696 28.1086C86.4186 26.7523 86.4186 26.6769 86.2337 25.6974H85.2168V24.7178H89.8392V25.6974H88.7299L88.2676 28.8622C87.8054 28.5607 87.2507 28.2593 86.696 28.1086Z" fill="white"/>
<path d="M86.5126 24.1156C84.941 22.7592 84.8485 20.7247 85.1259 18.9163C85.4032 19.5945 85.9579 20.1219 86.7899 20.4233C86.6975 20.0466 86.3277 19.7452 86.1428 19.3684C85.773 18.6149 85.773 17.5599 86.4201 16.8818C86.8824 16.3543 87.4371 16.1282 88.0842 15.9775C87.8069 16.5804 87.7144 17.3339 88.0842 17.9367C88.3924 17.7358 88.6697 17.5599 88.9163 17.4092C89.0087 17.3339 89.1012 17.2585 89.1936 17.1832C89.8408 18.2381 90.4879 19.7452 90.1181 21.0261L89.8408 21.5536C89.7483 20.6494 89.5634 20.2726 88.8238 19.8959C88.7314 20.4233 89.1012 20.8001 89.1936 21.4783C89.471 22.5332 89.2861 23.5128 88.454 24.1156H86.5126Z" fill="white"/>
<path d="M105.65 21.704L104.079 23.1357C103.617 22.8343 103.617 22.759 103.154 22.3822C103.986 21.704 104.079 21.6287 105.003 20.7998" fill="white"/>
<path d="M107.777 18.2366C108.147 17.031 108.24 15.5993 109.996 15.0718C110.643 14.9211 111.475 14.9964 112.03 15.3732C112.77 15.8253 112.954 16.5035 112.77 17.1817C112.307 18.6134 110.273 18.9148 108.702 19.2162L107.777 18.2366Z" fill="white"/>
<path d="M118.779 38.2832V41.2973H106.297V38.3586L118.779 38.2832Z" fill="white"/>
<path d="M88.6374 58.1774C88.1752 56.2936 90.9486 55.6154 91.5958 54.033C92.1505 51.3957 92.2429 48.683 94.4617 46.6472C94.6466 42.8042 96.2182 39.4121 99.5464 36.6241C99.3615 35.7952 98.9917 35.0417 98.6219 34.2128C98.1596 34.2128 97.8823 34.1374 97.5125 33.836C97.2352 33.5346 97.1427 33.2332 97.0503 32.8564C95.8484 34.0621 94.4617 35.3431 92.8901 36.1719C92.6127 36.3226 92.2429 36.0212 91.6882 35.6445C89.7468 34.3635 89.377 31.5755 86.4186 31.6508C85.0319 31.274 85.1244 29.9931 84.9395 29.0135C85.4017 28.7121 86.2337 28.7121 86.8809 28.9381C88.7299 29.767 89.9317 31.4247 91.6882 32.555C92.1505 32.8564 92.6127 33.2332 92.9825 33.3839C94.0919 32.555 95.0164 31.8769 95.8484 30.6712C96.4031 29.9931 97.3276 29.6916 98.2521 29.6163L98.9917 28.9381L98.6219 27.2804C97.8823 26.5268 97.3276 25.698 96.8654 24.8691C97.1427 23.8895 97.2352 22.7592 98.437 22.2318C99.1766 21.855 99.8237 22.7592 100.471 22.1564C100.933 22.0811 101.303 22.1564 101.673 22.3825C102.135 23.0606 102.782 23.7388 102.782 24.5677C102.505 25.3212 102.043 26.0747 101.58 26.8283C101.488 26.979 101.21 27.0543 101.026 27.1297C101.118 27.4311 101.21 27.8078 101.488 28.1092C101.858 28.1846 102.227 28.2599 102.597 28.1846C102.967 27.3557 104.076 26.979 105.001 26.6776L107.035 25.5473C106.665 24.2663 107.682 23.136 107.127 21.855C105.925 21.4029 105.648 20.348 105.371 19.4437C105.556 18.9163 105.925 18.3134 106.388 17.8613L106.48 17.9367C107.589 18.9916 108.606 20.1219 108.976 21.4029C109.161 23.136 109.346 24.8691 109.254 26.6022C108.144 27.5064 106.757 28.0339 105.556 28.7121L104.631 30.2191C104.539 31.7262 103.984 33.0825 103.707 34.5895C104.539 36.398 105.463 38.7339 104.724 40.3917C104.169 41.3713 103.059 41.8987 102.227 42.4262L100.101 43.7825C102.227 45.6663 101.673 47.8516 101.765 50.6396C101.765 51.3178 103.244 51.8452 102.412 52.5988C101.765 53.4276 100.748 54.1811 100.933 55.2361C100.286 56.1403 98.7143 56.291 97.9747 56.291C97.7898 56.291 97.6974 56.2157 97.6974 56.065C97.8823 55.6128 98.2521 55.2361 98.5294 54.784C99.269 53.8044 98.8992 52.5234 99.9162 51.6192C99.1766 49.5847 97.9747 47.6255 97.6974 45.4403V45.2896C97.0503 46.2692 97.4201 47.2487 97.7899 48.0776C95.6635 50.2628 93.4448 52.2973 93.4448 55.0854C92.5203 56.3664 91.3184 57.572 90.5788 58.9283C90.3939 59.1544 89.9317 58.9283 89.6543 58.853C89.0072 58.9283 88.9148 58.6269 88.6374 58.1748V58.1774Z" fill="white"/>
<path d="M111.568 48.9078C113.602 50.4902 117.022 52.7508 117.3 53.7303C117.577 54.3332 117.485 55.162 117.485 55.9156C116.93 56.2923 116.468 56.5937 115.728 57.0458C115.82 55.9155 116.005 54.7853 115.266 54.1071C113.602 52.7508 112.123 51.5451 110.643 50.4148C110.089 49.9627 109.626 49.2092 109.996 48.6064C110.181 48.305 110.366 47.9282 110.643 47.7021C110.828 48.2296 111.198 48.6064 111.568 48.9078Z" fill="white"/>
<path d="M114.803 56.2935C114.434 56.6702 114.249 56.7456 113.787 57.1224L112.862 56.2181V53.7315C111.568 54.259 111.845 55.766 111.845 57.047C111.106 56.5195 110.736 56.2181 109.996 55.6907C109.626 54.1836 110.643 53.3547 111.475 52.2998L114.711 54.7864V56.2935H114.803Z" fill="white"/>
<path d="M109.442 63.9037C109.719 63.4516 109.812 63.3009 109.812 62.7734H102.693C102.693 63.6023 103.248 64.3558 104.173 64.8833C105.189 65.4861 106.854 65.6368 107.871 65.1094C108.518 64.8833 109.072 64.4312 109.442 63.9037Z" fill="white"/>
<path d="M101.489 76.6398C101.489 75.0574 103.431 74.2286 104.633 73.1736C105.002 72.9476 105.095 72.4201 104.817 71.968C104.633 71.6666 104.448 71.5912 104.17 71.5159C103.708 71.4405 103.338 71.5159 103.153 71.6666C102.784 71.968 102.691 72.3447 102.691 72.7215L101.304 72.7969C101.212 72.194 101.397 71.5912 101.859 71.1391C102.506 70.6116 103.431 70.4609 104.355 70.4609C105.095 70.5363 105.927 70.9131 106.297 71.5912C106.666 72.2694 106.574 73.1736 105.927 73.7011C105.095 74.3793 104.078 74.756 103.431 75.5849L106.851 75.4342C106.851 75.811 106.944 76.1124 106.944 76.4138L101.489 76.6398Z" fill="#69655C"/>
<path d="M89.377 69.6325L87.1582 75.2839L85.7715 74.9071L87.3431 71.0642V70.9888C86.7884 70.8381 86.0488 70.6874 85.4941 70.5367L85.7715 69.7832C86.5111 69.9339 87.2507 70.0092 87.8978 69.6325C88.0827 69.4818 88.1752 69.4818 88.2676 69.3311L89.377 69.6325Z" fill="#69655C"/>
<path d="M116.467 72.7212C116.283 72.1937 115.913 71.7416 115.173 71.5909L114.711 71.5155C115.173 71.2895 115.543 70.762 115.451 70.2345C115.358 69.6317 114.803 69.3303 114.156 69.1042C113.602 68.9535 112.954 68.9535 112.307 69.1042C111.66 69.2549 111.105 69.481 110.643 69.7824C110.181 70.2345 109.904 70.6866 110.181 71.2895C110.366 71.8169 111.013 72.1183 111.568 72.1183L111.198 72.3444C110.643 72.7965 110.551 73.324 110.736 73.8514C110.921 74.4543 111.475 74.9817 112.215 75.1324C112.77 75.2831 113.417 75.2078 114.064 75.1324C114.711 74.9817 115.358 74.7557 115.728 74.4543C116.375 74.0021 116.652 73.324 116.467 72.7212ZM111.753 71.1388C111.568 70.9127 111.568 70.4606 111.845 70.2345C112.03 70.0838 112.307 70.0085 112.585 69.9331C112.862 69.8578 113.139 69.8578 113.417 69.9331C113.786 70.0085 114.064 70.3852 114.064 70.6866C114.064 70.9127 113.971 71.0634 113.786 71.2141C113.602 71.3648 113.324 71.4402 113.139 71.5155C112.862 71.5909 112.585 71.5909 112.4 71.5155C112.03 71.4402 111.845 71.3648 111.753 71.1388ZM114.711 73.8514C114.526 74.0021 114.156 74.1528 113.879 74.2282C113.509 74.3035 113.139 74.3035 112.862 74.2282C112.492 74.1528 112.307 73.9268 112.215 73.6254C112.122 73.2486 112.215 72.8719 112.585 72.6458C112.77 72.5704 113.047 72.4197 113.232 72.4197C113.509 72.3444 113.786 72.3444 113.971 72.3444C114.434 72.4197 114.803 72.7212 114.896 73.0979C115.081 73.324 114.988 73.6254 114.711 73.8514Z" fill="#69655C"/>
<path d="M97.9767 74.8315C97.9767 74.2286 97.7918 73.7765 97.1446 73.3998L96.7748 73.2491C97.3295 73.0984 97.8842 72.7216 97.8842 72.1941C97.9767 71.5913 97.6069 71.1392 97.1446 70.8378C96.6824 70.5364 96.0353 70.461 95.3881 70.3857C94.741 70.3103 94.0938 70.3857 93.5391 70.6117C92.9844 70.9131 92.5222 71.3653 92.5222 71.8927C92.5222 72.4202 92.9844 72.8723 93.5391 73.023L93.1693 73.1737C92.4298 73.4751 92.2449 73.9272 92.1524 74.5301C92.06 75.1329 92.5222 75.7357 93.1693 76.1124C93.6316 76.3385 94.2787 76.4892 95.0183 76.5646C95.6655 76.5646 96.3126 76.4892 96.8673 76.3385C97.422 76.0371 97.8842 75.4343 97.9767 74.8315ZM94.0014 72.1941C93.9089 71.8927 94.0938 71.516 94.4636 71.3653C94.6485 71.2899 95.0183 71.2146 95.2957 71.2146C95.573 71.2146 95.8504 71.2899 96.0353 71.4406C96.4051 71.6667 96.4975 72.0434 96.4051 72.2695C96.3126 72.4955 96.1277 72.5709 95.9428 72.7216C95.7579 72.797 95.4806 72.797 95.2032 72.797C94.9259 72.797 94.6485 72.7216 94.4636 72.6462C94.2787 72.5709 94.0938 72.4202 94.0014 72.1941ZM95.9428 75.4343C95.6655 75.585 95.3881 75.585 95.0183 75.585C94.6485 75.585 94.2787 75.5096 94.0938 75.3589C93.8165 75.2082 93.6316 74.9068 93.6316 74.6054C93.6316 74.2286 93.9089 73.8519 94.3712 73.7012C94.5561 73.6258 94.8334 73.6258 95.1108 73.6258C95.3881 73.6258 95.6655 73.7012 95.8504 73.7765C96.3126 73.9272 96.4975 74.304 96.4975 74.6808C96.4051 75.0575 96.2202 75.2836 95.9428 75.4343Z" fill="#69655C"/>
<path d="M129.567 17.1235L122.945 19.4512L123.531 20.5582L130.153 18.2306L129.567 17.1235Z" fill="#69655C"/>
<path d="M105.096 8.8926L103.34 2.78906L104.911 2.93977C105.189 4.44681 105.559 6.17992 105.928 7.38555C106.576 6.17992 107.315 4.59752 108.055 3.16582L109.626 3.31653L106.483 8.96795L105.096 8.8926Z" fill="#69655C"/>
<path d="M76.7126 12.3594L75.141 14.6954L73.7542 14.0925L75.6032 11.3798L74.5863 10.9277L71.9961 14.6954L78.2842 17.5587L80.8728 13.7911L79.8558 13.339L78.0069 16.0517L76.2503 15.2228L77.822 12.8115L76.7126 12.3594Z" fill="#69655C"/>
<path d="M72.9207 37.4545C72.5509 36.8517 71.7189 36.5503 70.8868 36.6256C70.1472 36.701 69.5926 37.0778 69.3152 37.6806C69.2228 37.3038 68.7605 36.8517 68.1134 36.7763C67.3738 36.701 66.7266 36.8517 66.3568 37.3792C65.8946 37.9066 66.0795 40.0918 66.0795 41.3728H73.2905V40.9207C73.1056 38.5848 73.2905 38.3587 72.9207 37.4545ZM68.853 40.1672H67.0964C67.1889 38.8109 66.9115 38.0573 67.9285 37.982C68.5756 37.982 68.6681 38.0573 68.853 38.3587V40.1672ZM71.9038 40.1672H69.8699C69.8699 38.8862 69.685 38.0573 70.6095 37.9066C70.9793 37.8313 71.3491 37.8313 71.6264 38.0573C72.0887 38.3587 71.9038 38.8862 71.9038 40.1672Z" fill="#69655C"/>
<path d="M130.246 21.5535L131.355 21.3262L132.834 25.924L131.725 26.15L131.17 24.4169L125.344 25.6979L124.975 24.4923L130.8 23.2866L130.246 21.5535Z" fill="#69655C"/>
<path d="M93.6322 9.19471C92.8002 9.27006 91.9681 9.27006 91.321 8.8933C90.7663 8.59189 90.5814 8.29048 90.3965 7.83837L89.5645 3.61864L91.0436 3.39258L91.8757 7.61231C91.9681 7.98907 92.3379 8.13977 92.7077 8.21513C92.8926 8.29048 93.17 8.29048 93.4473 8.21513" fill="#69655C"/>
<path d="M93.6322 9.19467C94.4642 9.11932 95.2038 8.81791 95.666 8.3658C96.1283 7.98904 96.1283 7.53692 96.1283 7.16016L95.2962 2.94043L93.8171 3.16649L94.6491 7.38622C94.7415 7.68763 94.4642 8.06439 94.0944 8.21509C93.9095 8.29044 93.6322 8.3658 93.4473 8.3658" fill="#69655C"/>
<path d="M133.572 29.9176L126.084 28.7119L126.269 29.9176L127.933 30.1436L128.303 32.2535L126.824 32.8563L127.008 34.0619L133.85 31.1985L133.572 29.9176ZM129.412 31.8014L129.135 30.3697L132.278 30.7464L129.412 31.8014Z" fill="#69655C"/>
<path d="M132.463 40.0912H132.833C133.295 39.8651 133.387 39.3377 133.387 38.9609C133.387 38.5088 133.202 38.132 132.74 37.9813C132.463 37.906 132.185 37.906 132 38.132C131.168 39.1116 131.723 41.2215 129.597 41.5983C128.672 41.749 127.84 41.3722 127.378 40.7694C126.731 39.7898 126.638 38.3581 127.378 37.3785C127.84 36.9264 128.487 36.625 129.135 36.625L129.227 37.7553C128.765 37.8306 128.303 37.9813 128.118 38.3581C127.84 38.9609 127.84 39.8651 128.395 40.2419C128.58 40.3926 129.042 40.3926 129.319 40.3173C130.151 39.7898 129.967 38.5842 130.429 37.7553C130.614 37.3785 130.984 37.0771 131.353 36.8511C132.093 36.625 133.017 36.7004 133.665 37.1525C134.589 37.906 134.681 39.3377 134.219 40.2419C133.942 40.8447 133.11 41.2968 132.278 41.3722L132.185 40.2419L132.463 40.0912Z" fill="#69655C"/>
<path d="M74.1244 31.1232C74.032 31.8014 73.6622 32.4042 73.1075 32.8563C72.6452 33.2331 72.183 33.2331 71.6283 33.2331L66.4512 32.5549L66.7285 31.3493L71.9057 32.0274C72.3679 32.1028 72.7377 31.8767 72.9226 31.5753C73.015 31.4246 73.1075 31.1986 73.1075 31.0479" fill="#69655C"/>
<path d="M74.1244 31.1231C74.2169 30.4449 74.2169 29.7668 73.7546 29.2393C73.3848 28.7872 73.015 28.6365 72.4603 28.4858L67.2832 27.8076L67.0059 29.0133L72.183 29.6914C72.5528 29.7668 72.8301 30.0682 72.9226 30.3696C73.015 30.5203 73.015 30.7464 72.9226 30.8971" fill="#69655C"/>
<path d="M82.1673 5.87793L80.873 6.5561L82.4447 12.6596L83.739 12.0568L83.3692 10.7005L85.5879 9.57019L86.8822 10.4744L88.1765 9.8716L82.1673 5.87793ZM83.0918 9.7209L82.2598 7.23427L84.571 8.96737L83.0918 9.7209Z" fill="#69655C"/>
<path d="M117.393 7.83794L114.342 6.78171L114.897 5.57607L118.41 6.78171L118.872 5.87748L113.973 4.21973L111.199 9.64639L116.099 11.3041L116.561 10.3999L113.048 9.19428L113.788 7.68723L116.839 8.74217L117.393 7.83794Z" fill="#69655C"/>
<path d="M73.198 20.8742C73.198 20.4974 73.198 20.1207 72.7357 19.8193C72.3659 19.5178 71.7188 19.2918 71.0716 19.3671C69.5 19.5932 69.2227 21.1002 68.3906 23.4362L75.3243 25.0939L75.7865 23.8883L73.0131 23.2101H72.9206C73.1055 22.6826 73.3829 22.0045 73.4753 21.8538C73.9376 20.9495 75.7865 21.8538 76.5261 21.7784L76.9884 20.5728C75.7865 20.7235 74.1225 19.8193 73.198 20.8742ZM71.8112 22.9841L69.9623 22.5319C70.3321 21.5524 70.5169 20.4974 71.4414 20.5728C71.8112 20.6481 71.9961 20.7235 72.2735 20.8742C72.5508 21.251 72.0886 22.0045 71.8112 22.9841Z" fill="#69655C"/>
<path d="M123.865 9.11914L118.133 12.7361L119.057 13.7156L121.369 12.2839L121.461 12.2086C121.923 12.6607 122.385 13.2635 122.478 13.4142C123.125 14.3184 121.091 14.9966 120.814 15.5241L121.738 16.5037C122.385 15.6748 124.327 15.072 123.68 13.8663C124.05 14.0924 124.419 14.3185 124.974 14.1677C125.529 14.0924 126.083 13.791 126.361 13.3389C127.1 12.1332 125.714 11.1537 123.865 9.11914ZM124.974 12.8114C124.697 13.0375 124.512 13.1128 124.142 13.1128C123.587 13.1128 123.125 12.4346 122.293 11.6058L123.772 10.7015C124.604 11.5304 125.529 12.2839 124.974 12.8114Z" fill="#69655C"/>
<path d="M30.2782 123V111.48H34.8062C35.5369 111.48 36.1502 111.629 36.6462 111.928C37.1422 112.227 37.5155 112.613 37.7662 113.088C38.0169 113.557 38.1422 114.053 38.1422 114.576C38.1422 115.211 37.9849 115.755 37.6702 116.208C37.3609 116.661 36.9422 116.971 36.4142 117.136L36.3982 116.744C37.1342 116.925 37.6995 117.28 38.0942 117.808C38.4889 118.331 38.6862 118.941 38.6862 119.64C38.6862 120.317 38.5502 120.907 38.2782 121.408C38.0115 121.909 37.6195 122.301 37.1022 122.584C36.5902 122.861 35.9689 123 35.2382 123H30.2782ZM31.9742 121.408H34.9822C35.3609 121.408 35.6995 121.336 35.9982 121.192C36.3022 121.048 36.5395 120.843 36.7102 120.576C36.8862 120.304 36.9742 119.981 36.9742 119.608C36.9742 119.261 36.8969 118.949 36.7422 118.672C36.5929 118.389 36.3742 118.168 36.0862 118.008C35.8035 117.843 35.4702 117.76 35.0862 117.76H31.9742V121.408ZM31.9742 116.184H34.7822C35.0915 116.184 35.3689 116.123 35.6142 116C35.8649 115.872 36.0622 115.691 36.2062 115.456C36.3555 115.216 36.4302 114.928 36.4302 114.592C36.4302 114.144 36.2809 113.776 35.9822 113.488C35.6835 113.2 35.2835 113.056 34.7822 113.056H31.9742V116.184ZM43.5342 123.232C42.9369 123.232 42.4355 123.136 42.0302 122.944C41.6249 122.752 41.2942 122.501 41.0382 122.192C40.7875 121.877 40.5955 121.536 40.4622 121.168C40.3289 120.8 40.2382 120.44 40.1902 120.088C40.1422 119.736 40.1182 119.427 40.1182 119.16V114.36H41.8142V118.608C41.8142 118.944 41.8409 119.291 41.8942 119.648C41.9529 120 42.0595 120.328 42.2142 120.632C42.3742 120.936 42.5955 121.181 42.8782 121.368C43.1662 121.555 43.5395 121.648 43.9982 121.648C44.2969 121.648 44.5795 121.6 44.8462 121.504C45.1129 121.403 45.3449 121.243 45.5422 121.024C45.7449 120.805 45.9022 120.517 46.0142 120.16C46.1315 119.803 46.1902 119.368 46.1902 118.856L47.2302 119.248C47.2302 120.032 47.0835 120.725 46.7902 121.328C46.4969 121.925 46.0755 122.392 45.5262 122.728C44.9769 123.064 44.3129 123.232 43.5342 123.232ZM46.3902 123V120.504H46.1902V114.36H47.8782V123H46.3902ZM50.122 123V114.36H51.61V116.456L51.402 116.184C51.5086 115.907 51.6473 115.653 51.818 115.424C51.9886 115.189 52.186 114.997 52.41 114.848C52.6286 114.688 52.8713 114.565 53.138 114.48C53.41 114.389 53.6873 114.336 53.97 114.32C54.2526 114.299 54.5246 114.312 54.786 114.36V115.928C54.5033 115.853 54.1886 115.832 53.842 115.864C53.5006 115.896 53.186 116.005 52.898 116.192C52.626 116.368 52.41 116.581 52.25 116.832C52.0953 117.083 51.9833 117.363 51.914 117.672C51.8446 117.976 51.81 118.299 51.81 118.64V123H50.122ZM59.9852 123.24C59.1265 123.24 58.3719 123.053 57.7212 122.68C57.0759 122.301 56.5719 121.776 56.2092 121.104C55.8519 120.427 55.6732 119.643 55.6732 118.752C55.6732 117.808 55.8492 116.989 56.2012 116.296C56.5585 115.603 57.0545 115.067 57.6892 114.688C58.3239 114.309 59.0625 114.12 59.9052 114.12C60.7852 114.12 61.5345 114.325 62.1532 114.736C62.7719 115.141 63.2332 115.72 63.5372 116.472C63.8465 117.224 63.9692 118.117 63.9052 119.152H62.2332V118.544C62.2225 117.541 62.0305 116.8 61.6572 116.32C61.2892 115.84 60.7265 115.6 59.9692 115.6C59.1319 115.6 58.5025 115.864 58.0812 116.392C57.6599 116.92 57.4492 117.683 57.4492 118.68C57.4492 119.629 57.6599 120.365 58.0812 120.888C58.5025 121.405 59.1105 121.664 59.9052 121.664C60.4279 121.664 60.8785 121.547 61.2572 121.312C61.6412 121.072 61.9399 120.731 62.1532 120.288L63.7932 120.808C63.4572 121.581 62.9479 122.181 62.2652 122.608C61.5825 123.029 60.8225 123.24 59.9852 123.24ZM56.9052 119.152V117.848H63.0732V119.152H56.9052ZM67.9838 123.24C67.3438 123.24 66.8078 123.123 66.3758 122.888C65.9438 122.648 65.6158 122.333 65.3918 121.944C65.1732 121.549 65.0638 121.117 65.0638 120.648C65.0638 120.211 65.1412 119.827 65.2958 119.496C65.4505 119.165 65.6798 118.885 65.9838 118.656C66.2878 118.421 66.6612 118.232 67.1038 118.088C67.4878 117.976 67.9225 117.877 68.4078 117.792C68.8932 117.707 69.4025 117.627 69.9358 117.552C70.4745 117.477 71.0078 117.403 71.5358 117.328L70.9278 117.664C70.9385 116.987 70.7945 116.485 70.4958 116.16C70.2025 115.829 69.6958 115.664 68.9758 115.664C68.5225 115.664 68.1065 115.771 67.7278 115.984C67.3492 116.192 67.0852 116.539 66.9358 117.024L65.3758 116.544C65.5892 115.803 65.9945 115.213 66.5918 114.776C67.1945 114.339 67.9945 114.12 68.9918 114.12C69.7652 114.12 70.4372 114.253 71.0078 114.52C71.5838 114.781 72.0052 115.197 72.2718 115.768C72.4105 116.051 72.4958 116.349 72.5278 116.664C72.5598 116.979 72.5758 117.317 72.5758 117.68V123H71.0958V121.024L71.3838 121.28C71.0265 121.941 70.5705 122.435 70.0158 122.76C69.4665 123.08 68.7892 123.24 67.9838 123.24ZM68.2798 121.872C68.7545 121.872 69.1625 121.789 69.5038 121.624C69.8452 121.453 70.1198 121.237 70.3278 120.976C70.5358 120.715 70.6718 120.443 70.7358 120.16C70.8265 119.904 70.8772 119.616 70.8878 119.296C70.9038 118.976 70.9118 118.72 70.9118 118.528L71.4558 118.728C70.9278 118.808 70.4478 118.88 70.0158 118.944C69.5838 119.008 69.1918 119.072 68.8398 119.136C68.4932 119.195 68.1838 119.267 67.9118 119.352C67.6825 119.432 67.4772 119.528 67.2958 119.64C67.1198 119.752 66.9785 119.888 66.8718 120.048C66.7705 120.208 66.7198 120.403 66.7198 120.632C66.7198 120.856 66.7758 121.064 66.8878 121.256C66.9998 121.443 67.1705 121.592 67.3998 121.704C67.6292 121.816 67.9225 121.872 68.2798 121.872ZM77.9092 123.232C77.3119 123.232 76.8105 123.136 76.4052 122.944C75.9999 122.752 75.6692 122.501 75.4132 122.192C75.1625 121.877 74.9705 121.536 74.8372 121.168C74.7039 120.8 74.6132 120.44 74.5652 120.088C74.5172 119.736 74.4932 119.427 74.4932 119.16V114.36H76.1892V118.608C76.1892 118.944 76.2159 119.291 76.2692 119.648C76.3279 120 76.4345 120.328 76.5892 120.632C76.7492 120.936 76.9705 121.181 77.2532 121.368C77.5412 121.555 77.9145 121.648 78.3732 121.648C78.6719 121.648 78.9545 121.6 79.2212 121.504C79.4879 121.403 79.7199 121.243 79.9172 121.024C80.1199 120.805 80.2772 120.517 80.3892 120.16C80.5065 119.803 80.5652 119.368 80.5652 118.856L81.6052 119.248C81.6052 120.032 81.4585 120.725 81.1652 121.328C80.8719 121.925 80.4505 122.392 79.9012 122.728C79.3519 123.064 78.6879 123.232 77.9092 123.232ZM80.7652 123V120.504H80.5652V114.36H82.2532V123H80.7652ZM90.4041 123L86.6601 111.48H88.3961L91.5881 121.312L94.8201 111.48H96.5561L92.8121 123H90.4041ZM100.641 123.24C99.7828 123.24 99.0281 123.053 98.3775 122.68C97.7321 122.301 97.2281 121.776 96.8655 121.104C96.5081 120.427 96.3295 119.643 96.3295 118.752C96.3295 117.808 96.5055 116.989 96.8575 116.296C97.2148 115.603 97.7108 115.067 98.3455 114.688C98.9801 114.309 99.7188 114.12 100.561 114.12C101.441 114.12 102.191 114.325 102.809 114.736C103.428 115.141 103.889 115.72 104.193 116.472C104.503 117.224 104.625 118.117 104.561 119.152H102.889V118.544C102.879 117.541 102.687 116.8 102.313 116.32C101.945 115.84 101.383 115.6 100.625 115.6C99.7881 115.6 99.1588 115.864 98.7375 116.392C98.3161 116.92 98.1055 117.683 98.1055 118.68C98.1055 119.629 98.3161 120.365 98.7375 120.888C99.1588 121.405 99.7668 121.664 100.561 121.664C101.084 121.664 101.535 121.547 101.913 121.312C102.297 121.072 102.596 120.731 102.809 120.288L104.449 120.808C104.113 121.581 103.604 122.181 102.921 122.608C102.239 123.029 101.479 123.24 100.641 123.24ZM97.5615 119.152V117.848H103.729V119.152H97.5615ZM106.356 123V114.36H107.844V116.456L107.636 116.184C107.743 115.907 107.882 115.653 108.052 115.424C108.223 115.189 108.42 114.997 108.644 114.848C108.863 114.688 109.106 114.565 109.372 114.48C109.644 114.389 109.922 114.336 110.204 114.32C110.487 114.299 110.759 114.312 111.02 114.36V115.928C110.738 115.853 110.423 115.832 110.076 115.864C109.735 115.896 109.42 116.005 109.132 116.192C108.86 116.368 108.644 116.581 108.484 116.832C108.33 117.083 108.218 117.363 108.148 117.672C108.079 117.976 108.044 118.299 108.044 118.64V123H106.356ZM112.704 112.944V111.32H114.376V112.944H112.704ZM112.704 123V114.36H114.376V123H112.704ZM121.722 123C121.178 123.107 120.645 123.152 120.122 123.136C119.6 123.12 119.133 123.019 118.722 122.832C118.312 122.645 118.002 122.352 117.794 121.952C117.608 121.595 117.506 121.232 117.49 120.864C117.48 120.491 117.474 120.069 117.474 119.6V111.96H119.154V119.52C119.154 119.867 119.157 120.168 119.162 120.424C119.173 120.68 119.229 120.896 119.33 121.072C119.522 121.403 119.826 121.592 120.242 121.64C120.664 121.683 121.157 121.664 121.722 121.584V123ZM115.818 115.704V114.36H121.722V115.704H115.818ZM125.984 123.24C125.344 123.24 124.808 123.123 124.376 122.888C123.944 122.648 123.616 122.333 123.392 121.944C123.173 121.549 123.064 121.117 123.064 120.648C123.064 120.211 123.141 119.827 123.296 119.496C123.45 119.165 123.68 118.885 123.984 118.656C124.288 118.421 124.661 118.232 125.104 118.088C125.488 117.976 125.922 117.877 126.408 117.792C126.893 117.707 127.402 117.627 127.936 117.552C128.474 117.477 129.008 117.403 129.536 117.328L128.928 117.664C128.938 116.987 128.794 116.485 128.496 116.16C128.202 115.829 127.696 115.664 126.976 115.664C126.522 115.664 126.106 115.771 125.728 115.984C125.349 116.192 125.085 116.539 124.936 117.024L123.376 116.544C123.589 115.803 123.994 115.213 124.592 114.776C125.194 114.339 125.994 114.12 126.992 114.12C127.765 114.12 128.437 114.253 129.008 114.52C129.584 114.781 130.005 115.197 130.272 115.768C130.41 116.051 130.496 116.349 130.528 116.664C130.56 116.979 130.576 117.317 130.576 117.68V123H129.096V121.024L129.384 121.28C129.026 121.941 128.57 122.435 128.016 122.76C127.466 123.08 126.789 123.24 125.984 123.24ZM126.28 121.872C126.754 121.872 127.162 121.789 127.504 121.624C127.845 121.453 128.12 121.237 128.328 120.976C128.536 120.715 128.672 120.443 128.736 120.16C128.826 119.904 128.877 119.616 128.888 119.296C128.904 118.976 128.912 118.72 128.912 118.528L129.456 118.728C128.928 118.808 128.448 118.88 128.016 118.944C127.584 119.008 127.192 119.072 126.84 119.136C126.493 119.195 126.184 119.267 125.912 119.352C125.682 119.432 125.477 119.528 125.296 119.64C125.12 119.752 124.978 119.888 124.872 120.048C124.77 120.208 124.72 120.403 124.72 120.632C124.72 120.856 124.776 121.064 124.888 121.256C125 121.443 125.17 121.592 125.4 121.704C125.629 121.816 125.922 121.872 126.28 121.872ZM135.957 123.232C134.907 123.232 134.051 123 133.389 122.536C132.728 122.072 132.323 121.419 132.173 120.576L133.885 120.312C133.992 120.76 134.237 121.115 134.621 121.376C135.011 121.632 135.493 121.76 136.069 121.76C136.592 121.76 137 121.653 137.293 121.44C137.592 121.227 137.741 120.933 137.741 120.56C137.741 120.341 137.688 120.165 137.581 120.032C137.48 119.893 137.264 119.763 136.933 119.64C136.603 119.517 136.099 119.365 135.421 119.184C134.68 118.992 134.091 118.787 133.653 118.568C133.221 118.344 132.912 118.085 132.725 117.792C132.544 117.493 132.453 117.133 132.453 116.712C132.453 116.189 132.592 115.733 132.869 115.344C133.147 114.955 133.536 114.653 134.037 114.44C134.544 114.227 135.136 114.12 135.813 114.12C136.475 114.12 137.064 114.224 137.581 114.432C138.099 114.64 138.517 114.936 138.837 115.32C139.157 115.699 139.349 116.144 139.413 116.656L137.701 116.968C137.643 116.552 137.448 116.224 137.117 115.984C136.787 115.744 136.357 115.613 135.829 115.592C135.323 115.571 134.912 115.656 134.597 115.848C134.283 116.035 134.125 116.293 134.125 116.624C134.125 116.816 134.184 116.979 134.301 117.112C134.424 117.245 134.659 117.373 135.005 117.496C135.352 117.619 135.864 117.765 136.541 117.936C137.267 118.123 137.843 118.331 138.269 118.56C138.696 118.784 139 119.053 139.181 119.368C139.368 119.677 139.461 120.053 139.461 120.496C139.461 121.349 139.149 122.019 138.525 122.504C137.907 122.989 137.051 123.232 135.957 123.232ZM148.506 125.504C147.888 124.784 147.354 123.971 146.906 123.064C146.458 122.163 146.117 121.216 145.882 120.224C145.648 119.227 145.538 118.232 145.554 117.24C145.538 116.248 145.648 115.256 145.882 114.264C146.117 113.267 146.458 112.317 146.906 111.416C147.354 110.509 147.888 109.696 148.506 108.976L149.754 109.904C149.114 110.661 148.6 111.44 148.21 112.24C147.821 113.035 147.536 113.851 147.354 114.688C147.173 115.52 147.082 116.371 147.082 117.24C147.082 118.104 147.173 118.955 147.354 119.792C147.536 120.629 147.821 121.448 148.21 122.248C148.605 123.048 149.12 123.824 149.754 124.576L148.506 125.504ZM151.544 123V111.48H153.056L157.232 120.144L161.384 111.48H162.912V122.992H161.328V115.112L157.608 123H156.848L153.12 115.112V123H151.544ZM165.945 125.504L164.697 124.576C165.332 123.824 165.844 123.048 166.233 122.248C166.628 121.448 166.916 120.629 167.097 119.792C167.279 118.955 167.369 118.104 167.369 117.24C167.369 116.371 167.279 115.52 167.097 114.688C166.916 113.851 166.631 113.035 166.241 112.24C165.852 111.44 165.337 110.661 164.697 109.904L165.945 108.976C166.564 109.696 167.097 110.509 167.545 111.416C167.993 112.317 168.335 113.267 168.569 114.264C168.804 115.256 168.913 116.248 168.897 117.24C168.913 118.232 168.804 119.227 168.569 120.224C168.335 121.216 167.993 122.163 167.545 123.064C167.097 123.971 166.564 124.784 165.945 125.504ZM74.1183 145.24C73.2916 145.24 72.5449 145.099 71.8783 144.816C71.2169 144.528 70.6703 144.12 70.2383 143.592C69.8116 143.059 69.5343 142.427 69.4063 141.696L71.1503 141.432C71.3263 142.136 71.6943 142.685 72.2543 143.08C72.8143 143.469 73.4676 143.664 74.2143 143.664C74.6783 143.664 75.1049 143.592 75.4943 143.448C75.8836 143.299 76.1956 143.088 76.4303 142.816C76.6703 142.539 76.7903 142.208 76.7903 141.824C76.7903 141.616 76.7529 141.432 76.6783 141.272C76.6089 141.112 76.5103 140.973 76.3823 140.856C76.2596 140.733 76.1076 140.629 75.9263 140.544C75.7503 140.453 75.5556 140.376 75.3423 140.312L72.3903 139.44C72.1023 139.355 71.8089 139.245 71.5103 139.112C71.2116 138.973 70.9369 138.795 70.6863 138.576C70.4409 138.352 70.2409 138.077 70.0863 137.752C69.9316 137.421 69.8543 137.021 69.8543 136.552C69.8543 135.843 70.0356 135.243 70.3983 134.752C70.7663 134.256 71.2623 133.883 71.8863 133.632C72.5103 133.376 73.2089 133.248 73.9823 133.248C74.7609 133.259 75.4569 133.397 76.0703 133.664C76.6889 133.931 77.2009 134.315 77.6063 134.816C78.0169 135.312 78.2996 135.915 78.4543 136.624L76.6623 136.928C76.5823 136.496 76.4116 136.125 76.1503 135.816C75.8889 135.501 75.5689 135.261 75.1903 135.096C74.8116 134.925 74.4009 134.837 73.9583 134.832C73.5316 134.821 73.1396 134.885 72.7823 135.024C72.4303 135.163 72.1476 135.357 71.9343 135.608C71.7263 135.859 71.6223 136.147 71.6223 136.472C71.6223 136.792 71.7156 137.051 71.9023 137.248C72.0889 137.445 72.3183 137.603 72.5903 137.72C72.8676 137.832 73.1423 137.925 73.4143 138L75.5423 138.6C75.8089 138.675 76.1103 138.776 76.4463 138.904C76.7876 139.027 77.1156 139.2 77.4303 139.424C77.7503 139.648 78.0143 139.947 78.2223 140.32C78.4303 140.688 78.5343 141.152 78.5343 141.712C78.5343 142.293 78.4169 142.805 78.1823 143.248C77.9476 143.685 77.6249 144.053 77.2143 144.352C76.8089 144.645 76.3396 144.867 75.8063 145.016C75.2729 145.165 74.7103 145.24 74.1183 145.24ZM83.6711 145.24C82.8658 145.24 82.1698 145.04 81.5831 144.64C81.0018 144.24 80.5511 143.696 80.2311 143.008C79.9165 142.315 79.7591 141.536 79.7591 140.672C79.7591 139.803 79.9191 139.027 80.2391 138.344C80.5591 137.656 81.0125 137.115 81.5991 136.72C82.1911 136.32 82.8925 136.12 83.7031 136.12C84.5191 136.12 85.2045 136.32 85.7591 136.72C86.3191 137.115 86.7405 137.656 87.0231 138.344C87.3111 139.032 87.4551 139.808 87.4551 140.672C87.4551 141.536 87.3111 142.312 87.0231 143C86.7351 143.688 86.3111 144.235 85.7511 144.64C85.1911 145.04 84.4978 145.24 83.6711 145.24ZM83.9031 143.728C84.4525 143.728 84.9005 143.597 85.2471 143.336C85.5938 143.075 85.8471 142.715 86.0071 142.256C86.1671 141.797 86.2471 141.269 86.2471 140.672C86.2471 140.075 86.1645 139.547 85.9991 139.088C85.8391 138.629 85.5885 138.272 85.2471 138.016C84.9111 137.76 84.4818 137.632 83.9591 137.632C83.4045 137.632 82.9485 137.768 82.5911 138.04C82.2338 138.312 81.9671 138.677 81.7911 139.136C81.6205 139.595 81.5351 140.107 81.5351 140.672C81.5351 141.243 81.6205 141.76 81.7911 142.224C81.9671 142.683 82.2285 143.048 82.5751 143.32C82.9271 143.592 83.3698 143.728 83.9031 143.728ZM86.2471 145V138.784H86.0551V133.48H87.7351V145H86.2471ZM96.0375 145V140.752C96.0375 140.416 96.0082 140.072 95.9495 139.72C95.8962 139.363 95.7895 139.032 95.6295 138.728C95.4748 138.424 95.2535 138.179 94.9655 137.992C94.6828 137.805 94.3122 137.712 93.8535 137.712C93.5548 137.712 93.2722 137.763 93.0055 137.864C92.7388 137.96 92.5042 138.117 92.3015 138.336C92.1042 138.555 91.9468 138.843 91.8295 139.2C91.7175 139.557 91.6615 139.992 91.6615 140.504L90.6215 140.112C90.6215 139.328 90.7682 138.637 91.0615 138.04C91.3548 137.437 91.7762 136.968 92.3255 136.632C92.8748 136.296 93.5388 136.128 94.3175 136.128C94.9148 136.128 95.4162 136.224 95.8215 136.416C96.2268 136.608 96.5548 136.861 96.8055 137.176C97.0615 137.485 97.2562 137.824 97.3895 138.192C97.5228 138.56 97.6135 138.92 97.6615 139.272C97.7095 139.624 97.7335 139.933 97.7335 140.2V145H96.0375ZM89.9655 145V136.36H91.4615V138.856H91.6615V145H89.9655ZM103.02 145V133.48H107.548C108.279 133.48 108.892 133.629 109.388 133.928C109.884 134.227 110.258 134.613 110.508 135.088C110.759 135.557 110.884 136.053 110.884 136.576C110.884 137.211 110.727 137.755 110.412 138.208C110.103 138.661 109.684 138.971 109.156 139.136L109.14 138.744C109.876 138.925 110.442 139.28 110.836 139.808C111.231 140.331 111.428 140.941 111.428 141.64C111.428 142.317 111.292 142.907 111.02 143.408C110.754 143.909 110.362 144.301 109.844 144.584C109.332 144.861 108.711 145 107.98 145H103.02ZM104.716 143.408H107.724C108.103 143.408 108.442 143.336 108.74 143.192C109.044 143.048 109.282 142.843 109.452 142.576C109.628 142.304 109.716 141.981 109.716 141.608C109.716 141.261 109.639 140.949 109.484 140.672C109.335 140.389 109.116 140.168 108.828 140.008C108.546 139.843 108.212 139.76 107.828 139.76H104.716V143.408ZM104.716 138.184H107.524C107.834 138.184 108.111 138.123 108.356 138C108.607 137.872 108.804 137.691 108.948 137.456C109.098 137.216 109.172 136.928 109.172 136.592C109.172 136.144 109.023 135.776 108.724 135.488C108.426 135.2 108.026 135.056 107.524 135.056H104.716V138.184ZM119.084 145V140.752C119.084 140.416 119.055 140.072 118.996 139.72C118.943 139.363 118.836 139.032 118.676 138.728C118.522 138.424 118.3 138.179 118.012 137.992C117.73 137.805 117.359 137.712 116.9 137.712C116.602 137.712 116.319 137.763 116.052 137.864C115.786 137.96 115.551 138.117 115.348 138.336C115.151 138.555 114.994 138.843 114.876 139.2C114.764 139.557 114.708 139.992 114.708 140.504L113.668 140.112C113.668 139.328 113.815 138.637 114.108 138.04C114.402 137.437 114.823 136.968 115.372 136.632C115.922 136.296 116.586 136.128 117.364 136.128C117.962 136.128 118.463 136.224 118.868 136.416C119.274 136.608 119.602 136.861 119.852 137.176C120.108 137.485 120.303 137.824 120.436 138.192C120.57 138.56 120.66 138.92 120.708 139.272C120.756 139.624 120.78 139.933 120.78 140.2V145H119.084ZM113.012 145V133.48H114.508V139.696H114.708V145H113.012ZM126.296 145.24C125.491 145.24 124.795 145.04 124.208 144.64C123.627 144.24 123.176 143.696 122.856 143.008C122.541 142.315 122.384 141.536 122.384 140.672C122.384 139.803 122.544 139.027 122.864 138.344C123.184 137.656 123.637 137.115 124.224 136.72C124.816 136.32 125.517 136.12 126.328 136.12C127.144 136.12 127.829 136.32 128.384 136.72C128.944 137.115 129.365 137.656 129.648 138.344C129.936 139.032 130.08 139.808 130.08 140.672C130.08 141.536 129.936 142.312 129.648 143C129.36 143.688 128.936 144.235 128.376 144.64C127.816 145.04 127.123 145.24 126.296 145.24ZM126.528 143.728C127.077 143.728 127.525 143.597 127.872 143.336C128.219 143.075 128.472 142.715 128.632 142.256C128.792 141.797 128.872 141.269 128.872 140.672C128.872 140.075 128.789 139.547 128.624 139.088C128.464 138.629 128.213 138.272 127.872 138.016C127.536 137.76 127.107 137.632 126.584 137.632C126.029 137.632 125.573 137.768 125.216 138.04C124.859 138.312 124.592 138.677 124.416 139.136C124.245 139.595 124.16 140.107 124.16 140.672C124.16 141.243 124.245 141.76 124.416 142.224C124.592 142.683 124.853 143.048 125.2 143.32C125.552 143.592 125.995 143.728 126.528 143.728ZM128.872 145V138.784H128.68V133.48H130.36V145H128.872Z" fill="#444444"/>
</svg>
